<svg width="604" height="460" viewBox="0 0 604 460" fill="none" xmlns="http://www.w3.org/2000/svg">
<g clip-path="url(#clip0_4_4915)">
<path d="M604 415.347H0.149414V460H604V415.347Z" fill="#B39C5D"/>
<path d="M603.162 415.384H0V413.892H603.432L603.162 415.384Z" fill="#00274C"/>
<path d="M473.744 171.88V304.068H130.406V171.88C130.405 128.012 147.157 85.8038 177.231 53.9013C207.304 21.9988 248.423 2.81648 292.164 0.283533C295.442 0.0921942 298.745 -0.00230217 302.075 4.25789e-05C303.972 4.25789e-05 305.862 0.0283757 307.738 0.0992588C351.296 1.47933 392.686 19.4505 423.461 50.3449C424.388 51.2734 425.301 52.209 426.214 53.1587C456.731 85.1312 473.755 127.656 473.744 171.88Z" fill="#DEEFFF"/>
<path d="M307.738 0.0992901V304.068H292.164V0.283533C295.441 0.0921942 298.745 -0.00230217 302.075 4.25789e-05C303.972 4.25789e-05 305.862 0.0283797 307.738 0.0992901Z" fill="#B39C5D"/>
<path d="M439.417 68.7519H164.732C168.821 63.2973 173.23 58.0904 177.935 53.1587H426.214C430.919 58.0904 435.328 63.2973 439.417 68.7519Z" fill="#B39C5D"/>
<path d="M447.615 113.405H325.931V319.661H447.615V113.405Z" fill="#E4E9E2"/>
<path d="M368.366 148.25H349.959V166.679H368.366V148.25Z" fill="#00274C"/>
<path d="M398.02 148.25H379.614V166.679H398.02V148.25Z" fill="#00274C"/>
<path d="M427.674 148.25H409.268V166.679H427.674V148.25Z" fill="#00274C"/>
<path d="M368.877 190.227H350.471V208.656H368.877V190.227Z" fill="#00274C"/>
<path d="M398.531 190.227H380.125V208.656H398.531V190.227Z" fill="#00274C"/>
<path d="M428.185 190.227H409.779V208.656H428.185V190.227Z" fill="#E6E6E6"/>
<path d="M369.388 232.203H350.982V250.632H369.388V232.203Z" fill="#00274C"/>
<path d="M399.042 232.203H380.636V250.632H399.042V232.203Z" fill="#00274C"/>
<path d="M428.697 232.203H410.291V250.632H428.697V232.203Z" fill="#E6E6E6"/>
<path d="M369.899 274.18H351.493V292.609H369.899V274.18Z" fill="#E6E6E6"/>
<path d="M399.554 274.18H381.148V292.609H399.554V274.18Z" fill="#E6E6E6"/>
<path d="M429.208 274.18H410.802V292.609H429.208V274.18Z" fill="#E6E6E6"/>
<path d="M369.899 274.18H351.493V292.609H369.899V274.18Z" fill="#E6E6E6"/>
<path d="M399.554 274.18H381.148V292.609H399.554V274.18Z" fill="#E6E6E6"/>
<path d="M429.208 274.18H410.802V292.609H429.208V274.18Z" fill="#E6E6E6"/>
<path d="M171.218 262.129C185.228 262.129 196.586 250.757 196.586 236.73C196.586 222.702 185.228 211.33 171.218 211.33C157.207 211.33 145.849 222.702 145.849 236.73C145.849 250.757 157.207 262.129 171.218 262.129Z" fill="#75988D"/>
<path d="M171.287 236.73H171.357L172.612 308.741H169.963L171.287 236.73Z" fill="#B39C5D"/>
<path d="M175.906 275.954L175.322 274.843L171.129 277.053L171.713 278.164L175.906 275.954Z" fill="#B39C5D"/>
<path d="M245.8 237.859C267.105 237.859 284.377 220.567 284.377 199.235C284.377 177.903 267.105 160.611 245.8 160.611C224.494 160.611 207.223 177.903 207.223 199.235C207.223 220.567 224.494 237.859 245.8 237.859Z" fill="#75988D"/>
<path d="M245.906 199.235H246.012L247.919 308.741H243.893L245.906 199.235Z" fill="#B39C5D"/>
<path d="M252.93 258.882L252.041 257.192L245.664 260.554L246.553 262.244L252.93 258.882Z" fill="#B39C5D"/>
<path d="M166.233 162.353L172.75 157.135C167.687 156.576 165.607 159.34 164.756 161.528C160.801 159.884 156.495 162.039 156.495 162.039L169.534 166.778C168.876 165.019 167.731 163.484 166.233 162.353Z" fill="#00274C"/>
<path d="M234.901 119.826L241.418 114.608C236.355 114.049 234.275 116.813 233.424 119.001C229.468 117.357 225.163 119.512 225.163 119.512L238.202 124.251C237.544 122.492 236.399 120.957 234.901 119.826Z" fill="#00274C"/>
<path d="M208.708 160.227L215.225 155.008C210.162 154.449 208.082 157.214 207.231 159.402C203.276 157.757 198.97 159.912 198.97 159.912L212.009 164.652C211.351 162.893 210.206 161.358 208.708 160.227Z" fill="#00274C"/>
<path d="M491.796 288.475H112.354V319.661H491.796V288.475Z" fill="#E6E6E6"/>
<path d="M55.6809 369.655C55.6809 369.655 -21.072 334.278 5.89119 309.746C32.8544 285.213 55.6809 369.655 55.6809 369.655Z" fill="#75988D"/>
<path d="M54.345 377.91C54.345 377.91 19.0665 261.854 71.0154 267.404C122.964 272.954 54.345 377.91 54.345 377.91Z" fill="#75988D"/>
<path d="M28.623 367.617L30.1037 387.031L30.1272 387.366C30.1258 390.398 30.2788 393.427 30.5856 396.443C32.5951 416.245 41.2324 425.27 51.3269 425.27C61.4214 425.27 69.6826 416.245 71.6921 396.443C71.9989 393.427 72.1519 390.398 72.1505 387.366L72.1622 387.095L72.1681 387.031L73.6547 367.617H28.623Z" fill="#CFC096"/>
<path d="M72.1681 387.031L72.1622 387.095L72.1505 387.366C72.1519 390.397 71.9989 393.427 71.6922 396.443H30.5856C30.2788 393.427 30.1259 390.397 30.1273 387.366L30.1038 387.031H72.1681Z" fill="white"/>
<path d="M569.224 369.655C569.224 369.655 492.471 334.278 519.434 309.746C546.397 285.213 569.224 369.655 569.224 369.655Z" fill="#75988D"/>
<path d="M567.887 377.91C567.887 377.91 532.609 261.854 584.558 267.404C636.507 272.954 567.887 377.91 567.887 377.91Z" fill="#75988D"/>
<path d="M542.166 367.617L543.646 387.031L543.67 387.366C543.669 390.398 543.822 393.427 544.128 396.443C546.138 416.245 554.775 425.27 564.87 425.27C574.964 425.27 583.225 416.245 585.235 396.443C585.542 393.427 585.695 390.398 585.693 387.366L585.705 387.095L585.711 387.031L587.197 367.617H542.166Z" fill="#CFC096"/>
<path d="M585.711 387.031L585.705 387.095L585.693 387.366C585.695 390.397 585.542 393.427 585.235 396.443H544.128C543.822 393.427 543.669 390.397 543.67 387.366L543.646 387.031H585.711Z" fill="white"/>
<path d="M467.315 439.936L462.283 440.528C458.308 442.927 453.643 443.83 448.477 443.647C447.755 443.625 447.052 443.415 446.437 443.038C445.822 442.66 445.316 442.128 444.969 441.495C444.668 440.939 444.5 440.321 444.476 439.689C444.453 439.057 444.576 438.429 444.835 437.852C445.094 437.276 445.482 436.767 445.97 436.365C446.457 435.963 447.031 435.68 447.646 435.536L451.47 434.645L460.696 425.61L466.262 415.524L474.347 416.453L476.03 429.263C476.243 431.827 475.454 434.373 473.828 436.364C472.202 438.355 469.867 439.636 467.315 439.936Z" fill="#E5ACF2"/>
<path d="M388.944 433.455L384.012 434.617C380.336 437.454 375.804 438.883 370.65 439.29C369.931 439.351 369.209 439.223 368.554 438.918C367.9 438.613 367.337 438.142 366.92 437.552C366.558 437.034 366.321 436.44 366.225 435.815C366.13 435.19 366.181 434.551 366.372 433.949C366.564 433.347 366.892 432.797 367.331 432.342C367.77 431.887 368.307 431.54 368.902 431.327L372.599 430.005L380.737 419.977L385.119 409.322H393.257L396.387 421.857C396.891 424.38 396.396 426.999 395.007 429.163C393.619 431.327 391.444 432.866 388.944 433.455Z" fill="#E5ACF2"/>
<path d="M384.901 410.031L394.104 411.449L408.616 338.089L433.747 295.208L464.187 419.954L475.514 422.08C474.244 351.831 480.443 263.391 466.311 252.681L404.722 259.769L377.822 332.065L384.901 410.031Z" fill="#2F2E41"/>
<path d="M429.499 143.528C441.228 143.528 450.737 134.008 450.737 122.265C450.737 110.521 441.228 101.001 429.499 101.001C417.77 101.001 408.262 110.521 408.262 122.265C408.262 134.008 417.77 143.528 429.499 143.528Z" fill="#E5ACF2"/>
<path d="M459.231 154.869L433.746 159.122L427.375 136.441L445.781 130.771L459.231 154.869Z" fill="#E5ACF2"/>
<path d="M469.85 255.516L401.891 261.895C407.339 242.927 412.331 224.026 408.262 205.193C403.095 188.379 408.082 178.381 421.712 170.462L430.915 149.908L455.692 147.073C462.253 157.635 464.937 170.155 463.283 182.483C459.753 209.292 460.706 234.168 469.85 255.516Z" fill="#702082"/>
<path d="M429.021 97.1518C421.933 98.7731 413.866 101.07 413.414 103.206C406.123 105.045 400.62 109.451 399.496 116.169C399.402 116.749 399.437 117.343 399.597 117.909C399.757 118.475 400.039 118.999 400.424 119.444C400.808 119.889 401.285 120.244 401.821 120.484C402.357 120.724 402.94 120.844 403.527 120.834C407.492 120.783 413.444 120.403 417.375 118.759C428.793 126.125 430.709 145.283 425.723 158.324L433.57 157.604L441.687 133.811L443.761 156.669L461.667 154.298L459.36 125.15C458.652 118.28 456.316 111.679 452.549 105.894C452.158 105.313 451.73 104.757 451.267 104.231C448.543 101.15 445.037 98.8648 441.12 97.6183C437.203 96.3719 433.022 96.2107 429.021 97.1518Z" fill="#2F2E41"/>
<path d="M384.049 447.247C384.01 447.594 384.045 447.945 384.15 448.278C384.256 448.61 384.429 448.917 384.661 449.179C384.892 449.44 385.175 449.65 385.492 449.795C385.809 449.94 386.153 450.016 386.502 450.02L394.466 450.102C394.895 450.072 395.296 449.88 395.589 449.565C395.883 449.25 396.046 448.836 396.046 448.406C396.046 448.066 395.944 447.734 395.754 447.452C395.564 447.171 395.293 446.953 394.978 446.827L392.629 445.886L389.212 441.096H386.478C385.136 442.888 384.297 445.007 384.05 447.233L384.049 447.247H384.049Z" fill="#E5ACF2"/>
<path d="M364.987 447.247C365.026 447.594 364.991 447.945 364.886 448.278C364.78 448.61 364.606 448.917 364.375 449.179C364.144 449.44 363.861 449.65 363.544 449.795C363.226 449.94 362.882 450.016 362.534 450.02L354.57 450.102C354.141 450.072 353.74 449.88 353.446 449.565C353.153 449.25 352.99 448.836 352.99 448.406C352.99 448.066 353.092 447.734 353.282 447.452C353.472 447.171 353.742 446.953 354.058 446.827L356.407 445.886L359.824 441.096H362.558C363.9 442.888 364.739 445.007 364.986 447.233L364.987 447.247Z" fill="#E5ACF2"/>
<path d="M359.141 441.096H363.241L377.593 378.828L385.111 441.78H389.895L396.388 360.695L363.241 360.353L359.141 441.096Z" fill="#3F3D56"/>
<path d="M340.688 326.824H346.156V313.822L347.399 311.332C347.649 310.832 347.777 310.28 347.773 309.722C347.77 309.163 347.634 308.613 347.378 308.116C347.121 307.62 346.751 307.191 346.298 306.865C345.845 306.539 345.321 306.325 344.77 306.24C344.265 306.162 343.749 306.195 343.258 306.335C342.767 306.476 342.312 306.721 341.924 307.054C341.536 307.387 341.225 307.8 341.012 308.264C340.799 308.729 340.688 309.234 340.688 309.746V326.824Z" fill="#E5ACF2"/>
<path d="M373.151 294.663C380.134 294.663 385.794 288.995 385.794 282.004C385.794 275.013 380.134 269.345 373.151 269.345C366.168 269.345 360.508 275.013 360.508 282.004C360.508 288.995 366.168 294.663 373.151 294.663Z" fill="#E5ACF2"/>
<path d="M368.025 303.559H381.01V288.505H368.025V303.559Z" fill="#E5ACF2"/>
<path d="M361.874 362.405C373.368 369.507 385.52 368.812 398.096 363.09L395.362 299.453L381.01 298.769L365.975 300.821L358.457 306.98L361.874 362.405Z" fill="#702082"/>
<path d="M348.206 339.825L363.241 328.192L358.457 306.98L349.573 323.402L346.839 320.665L338.638 326.824L348.206 339.825Z" fill="#702082"/>
<path d="M414.947 300.546L410.165 303.199L403.87 291.828L401.576 290.253C401.116 289.937 400.737 289.517 400.47 289.026C400.202 288.536 400.055 287.989 400.039 287.43C400.022 286.872 400.138 286.317 400.377 285.812C400.615 285.307 400.97 284.865 401.411 284.523C401.815 284.21 402.282 283.988 402.779 283.873C403.277 283.757 403.794 283.751 404.294 283.854C404.794 283.957 405.266 284.167 405.678 284.47C406.089 284.773 406.431 285.161 406.678 285.609L408.652 289.174L414.947 300.546Z" fill="#E5ACF2"/>
<path d="M388.187 319.639L406.332 309.994L415.865 304.927L417.232 296.716L411.081 290.558L403.564 295.347L404.247 300.822L395.363 299.453L388.187 319.639Z" fill="#702082"/>
<path d="M375.885 292.268C384.189 292.268 390.92 285.528 390.92 277.214C390.92 268.9 384.189 262.16 375.885 262.16C367.581 262.16 360.849 268.9 360.849 277.214C360.849 285.528 367.581 292.268 375.885 292.268Z" fill="#2F2E41"/>
<path d="M384.086 266.95C387.86 266.95 390.92 263.887 390.92 260.108C390.92 256.329 387.86 253.265 384.086 253.265C380.312 253.265 377.252 256.329 377.252 260.108C377.252 263.887 380.312 266.95 384.086 266.95Z" fill="#2F2E41"/>
<path d="M383.755 265.828C385.109 266.537 386.662 266.769 388.165 266.49C389.668 266.21 391.033 265.434 392.043 264.286C393.054 263.138 393.65 261.683 393.738 260.156C393.825 258.628 393.399 257.115 392.526 255.859C393.316 256.454 393.968 257.214 394.436 258.086C394.904 258.958 395.178 259.921 395.237 260.91C395.297 261.898 395.142 262.887 394.783 263.81C394.423 264.732 393.868 265.565 393.155 266.252C392.443 266.938 391.59 267.461 390.655 267.786C389.721 268.11 388.728 268.227 387.744 268.129C386.76 268.031 385.809 267.72 384.956 267.218C384.104 266.716 383.371 266.034 382.807 265.221C383.106 265.449 383.423 265.652 383.755 265.828Z" fill="#2F2E41"/>
<path d="M425.96 276.78L426.429 293.235C426.494 295.503 425.698 297.712 424.201 299.416C422.705 301.12 420.619 302.193 418.364 302.419C416.919 302.563 415.461 302.354 414.115 301.81C412.769 301.265 411.576 300.402 410.637 299.293C409.698 298.185 409.043 296.864 408.726 295.446C408.41 294.027 408.443 292.553 408.821 291.15L412.509 277.488L423.128 219.368L422.42 185.347L445.073 184.638L440.826 222.912L425.96 276.78Z" fill="#E5ACF2"/>
<path d="M446.489 188.182C438.282 185.052 429.212 185.052 421.004 188.182L422.42 159.831C422.42 156.823 423.613 153.938 425.737 151.812C427.862 149.685 430.743 148.49 433.747 148.49C436.751 148.49 439.632 149.685 441.756 151.812C443.88 153.938 445.073 156.823 445.073 159.831L446.489 188.182Z" fill="#702082"/>
</g>
<defs>
<clipPath id="clip0_4_4915">
<rect width="604" height="460" fill="white"/>
</clipPath>
</defs>
</svg>
