<svg xmlns="http://www.w3.org/2000/svg" xmlns:xlink="http://www.w3.org/1999/xlink" width="87" height="92" viewBox="0 0 87 92">
    <defs>
        <path id="prefix__a" d="M0.034 0.073L86.677 0.073 86.677 91.966 0.034 91.966z"/>
    </defs>
    <g fill="none" fill-rule="evenodd">
        <mask id="prefix__b" fill="#fff">
            <use xlink:href="#prefix__a"/>
        </mask>
        <path fill="#00264A" d="M0.034 91.966L86.677 91.966 86.677 0.073 0.034 0.073z" mask="url(#prefix__b)"/>
        <path fill="#FACA22" d="M43.119 48.726L30.521 31.44 30.521 44.012 35.56 44.012 35.56 56.427 12.254 56.427 12.254 44.012 16.977 44.012 16.977 24.683 12.254 24.683 12.254 12.267 30.561 12.267 43.18 29.71 55.828 12.267 74.134 12.267 74.134 24.683 69.409 24.683 69.409 44.012 74.134 44.012 74.134 56.427 50.829 56.427 50.829 44.012 55.867 44.012 55.867 31.44 43.119 48.726"/>
        <path fill="#FFFFFE" d="M57.137 75.969v.431c-.753.046-.753.251-.774 1.775v.603c-.646.386-1.568.944-3.2.944-2.86 0-4.226-2.094-4.226-4.197 0-2.57 1.801-4.242 4.058-4.242 1.42 0 2.236.511 2.914.91l.434-.478.063 2.513-.34.057c-.168-.477-.422-1.029-1.048-1.632-.275-.261-.805-.597-1.642-.597-1.451 0-2.66 1.183-2.66 3.492 0 1.843.943 3.423 2.564 3.423.922 0 1.399-.626 1.441-.671.148-.216.182-.409.17-.763-.038-1.022-.18-1.045-1.103-1.137v-.431h3.349zm8.203 3.548v-.431c.683-.035.942-.046 1.037-.5.117-.536.152-5.3.164-6.13-.459-.41-.647-.49-1.2-.535v-.432h2.495c.695.955.847 1.17 2.072 2.637l2.319 2.776v-3.594c-.013-1.273-.047-1.342-1.366-1.387v-.432h3.273v.432c-.907.01-.99.194-1 1.5l-.119 6.199h-.494l-.742-.899c-.376-.455-.753-.908-1.13-1.353l-3.284-3.914v4.165c0 1.296.094 1.342 1.365 1.467v.431h-3.39zm-45.871 0v-.431c1.048-.068 1.048-.114 1.06-1.603v-4.039L17.62 79.62h-.73l-2.669-6.257-.062 4.722c0 .785.095.933.978 1v.432h-2.884v-.431c.67-.035.93-.125.976-.672.024-.216.059-.887.071-1.33l.118-3.366c.012-.262.012-.649.012-.933 0-.796-.166-.853-.907-.864v-.432h2.613l2.59 6.095 2.848-6.095h2.531v.477c-.988.057-1 .16-.988 1.41v3.31c0 .546.011 1.228.047 1.637.047.592.282.706.941.763v.431h-3.637zm4.452 0v-.431c.812-.103.977-.194.989-1.036v-4.276c-.012-1.671-.012-1.717-.99-1.853v-.432h3.452v.432c-.978.09-.978.136-.978 1.853v3.241c0 .285.012 1.183.036 1.422.059.489.294.603.942.649v.431H23.92zm21.324 0v-.431c.813-.103.978-.194.99-1.036v-4.276c-.012-1.671-.012-1.717-.99-1.853v-.432H48.7v.432c-.977.09-.977.136-.977 1.853v3.241c0 .285.012 1.183.036 1.422.058.489.294.603.94.649v.431h-3.454zm-9.474 0v-.431c.942-.08.954-.274.954-1.047.011-.284.011-.569.011-.853V73.82c0-.523 0-1.046-.035-1.297-.047-.477-.282-.546-.93-.602v-.432h3.558v.432c-.695.068-.953.09-1.036.534-.059.262-.07.853-.07 1.331v1.11c.717.033 1.218.056 1.912.056.706 0 1.265-.023 1.972-.057v-1.348c-.012-1.467-.024-1.524-1.154-1.626v-.432h3.605v.432c-.967.114-.967.125-.967 1.649v3.389c0 .318.012 1.331.047 1.569.06.422.307.5.92.558v.431h-3.605v-.431c.836-.092 1.06-.114 1.13-.672.024-.227.024-.533.024-1.114v-1.473c-.66-.022-1.207-.056-1.89-.056-.717 0-1.277.022-1.995.056V77.3c.012 1.672.036 1.672 1.107 1.786v.431h-3.558zm-.614-1.785c-.369.58-1.252 2.001-3.545 2.001-2.504 0-4.126-1.784-4.126-4.127 0-2.173 1.375-4.311 4.182-4.311 1.476 0 2.259.603 2.74.967l.57-.5.044 2.433-.368.069c-.145-.467-.359-.842-.895-1.41-.257-.263-.872-.785-1.744-.785-1.499 0-2.685 1.182-2.685 3.263 0 1.764.974 3.424 2.897 3.424 1.454 0 1.999-.784 2.435-1.386l.495.362zm25.799-4.66L59.734 76.4h2.388l-1.166-3.328zm.743 6.445v-.431c.565-.035 1.001-.08 1.001-.523 0-.16-.047-.33-.094-.478l-.25-.82h-2.93l-.257.694c-.06.171-.106.331-.106.5 0 .57.624.604 1.13.627v.431h-3.426v-.431c.871-.035 1.154-.206 1.472-1.047l2.248-5.959-.13-.194c.965-.306 1.236-.443 1.648-.74.165.547.189.615.377 1.184l1.837 5.459c.329.967.482 1.205 1.365 1.297v.431h-3.885zM40.035 66.855c.008 1.201.008 1.364.669 1.377v.29H38.41v-.29c.592-.044.654-.133.662-.696.007-.216.007-.46.007-.675v-1.895c0-.63-.007-.853-.03-1.023-.04-.29-.188-.342-.64-.378v-.283l2.49.01c1.353 0 1.781.615 1.781 1.342 0 .505-.326 1.16-1.08 1.384l.972 1.614c.35.615.537.758.98.816v.178c-.117.008-.233.015-.358.015-1.034 0-1.462-.342-1.898-1.224l-.304-.617c-.326-.66-.435-.618-.957-.626v.68zm0-1.141c.148.029.358.051.514.051.625.003 1.097-.465 1.12-.884.033-.609-.287-1.135-1.3-1.135-.139 0-.224.008-.334.03v1.938zm-2.268 2.809c0-.378.07-1.002.117-1.358h-.265c-.187.935-.74.89-1.533.89-.732 0-.879-.186-.879-.527v-1.465h.592c.676 0 .87.055.87.643h.265v-1.73h-.265c-.054.467-.155.62-.864.62h-.598V63.75h.677c.933 0 1.268.068 1.393.78h.248l-.03-1.247H33.58v.282c.396.037.568.06.623.304.038.163.046.742.046.95v1.841c0 .141-.008.772-.016.898-.016.572-.085.623-.653.675v.29h4.186zm19.937 0v-.282c.428-.045.592-.06.701-.163.125-.119.125-.252.132-.824v-.92l-1.463-2.16c-.396-.564-.404-.578-.933-.608v-.29h2.863v.29c-.575.015-.832.03-.832.282 0 .14.1.304.24.527l.842 1.312.777-1.305c.14-.26.218-.415.218-.534 0-.252-.225-.26-.607-.282v-.29h2.148v.29c-.553.015-.716.17-1.347 1.15l-.855 1.365v1.092c0 .95.008 1.023.825 1.068v.282h-2.709zm-24.359-5.239v.282c-.528.074-.598.215-1.05 1.254l-1.672 3.807h-.296l-1.502-3.866c-.373-.994-.42-1.113-.972-1.195v-.282h2.606v.282c-.443.015-.732.03-.732.334 0 .148.04.274.187.712l.957 2.664 1.12-2.753c.071-.185.164-.422.164-.556 0-.379-.389-.394-.731-.401v-.282h1.921zm-18.618 0v.282c-.73.052-.73.074-.739 1.187v1.232c0 .638.013 1.186.366 1.677.281.391.759.441 1 .441.786 0 1.218-.39 1.404-1.005.156-.49.164-1.41.164-2.018 0-.193 0-.816-.008-.987-.031-.475-.287-.49-.778-.527v-.282h2.094v.282c-.514-.007-.623.105-.655.623-.007.127-.07 1.582-.078 1.804-.015.4-.038.793-.131 1.172-.374 1.41-1.814 1.484-2.195 1.484-.303 0-.925-.044-1.44-.37-.816-.528-.824-1.314-.824-2.16v-1.187c-.008-.565-.008-.817-.023-.95-.047-.327-.218-.394-.63-.416v-.282h2.473zm37.319 5.239V68.3c.506-.007.646-.185.646-.601v-3.86h-.685c-.622 0-1.035-.021-1.081.913h-.288l.046-1.469h4.996l.047 1.47h-.288c-.047-.935-.46-.913-1.082-.913h-.685v3.859c0 .416.14.594.646.601v.223h-2.272zM43.57 66.89l.28-.029c.305.853.811 1.313 1.637 1.313.585 0 1.098-.237 1.098-.802 0-.593-.6-.83-.864-.935-.219-.08-.452-.148-.67-.23-.452-.155-1.301-.489-1.301-1.505 0-.98.81-1.529 1.752-1.529.367 0 .795.074 1.262.355l.334-.229.18 1.558-.273.052c-.093-.341-.163-.5-.381-.776-.265-.326-.638-.478-1.075-.478-.584 0-.927.267-.927.683 0 .623.647.83 1.262 1.024.312.096.569.178.794.304.436.245.794.705.794 1.336 0 .905-.778 1.654-1.938 1.654-.749 0-1.208-.282-1.426-.415l-.458-.32-.08-1.031zm-24.927 1.633v-.282c.452-.022.623-.03.686-.327.077-.348.1-3.457.108-4-.303-.266-.428-.318-.794-.348v-.282h1.65c.46.623.56.764 1.37 1.721l1.533 1.812v-2.345c-.008-.832-.032-.876-.903-.906v-.282h2.163v.282c-.6.007-.654.126-.661.98l-.078 4.044h-.327l-.49-.586c-.25-.297-.498-.594-.748-.884l-2.17-2.553v2.717c0 .846.062.876.902.957v.282h-2.24zm29.19 0v-.282c.536-.067.646-.126.653-.675v-2.79c-.007-1.092-.007-1.12-.653-1.21v-.282h2.28v.282c-.646.06-.646.09-.646 1.21v2.114c0 .186.008.772.024.929.038.319.194.392.622.422v.282h-2.28zm-22.786 0v-.282c.537-.067.646-.126.654-.675v-2.79c-.008-1.092-.008-1.12-.654-1.21v-.282h2.282v.282c-.645.06-.645.09-.645 1.21v2.114c0 .186.007.772.023.929.038.319.194.392.622.422v.282h-2.282zm44.97-.252v.289h2.274v-.289c-.567-.052-.637-.105-.653-.676l.004-1.495h.607c.614 0 .94.056.98.642h.265v-1.729h-.265c-.031.564-.194.62-.864.62h-.723V63.82c.195-.023.304-.03.655-.03 1.073 0 1.42-.004 1.563.816h.273l-.086-1.284h-4.03v.282c.397.037.568.06.622.304.04.163.047.742.047.95l-.001 1.841c0 .14-.007.771-.015.897-.015.571-.086.624-.654.676zm-3.011-.06c.31-.008.748-.156 1.088-.648.388-.568.467-1.09.445-1.772-.021-.676-.219-1.256-.623-1.667-.176-.18-.525-.445-.983-.432-.458 0-.797.275-.968.46-.39.422-.57 1.009-.57 1.685 0 .683.097 1.201.503 1.758.356.483.797.616 1.108.616zm2.743-2.278c0 1.81-1.293 2.76-2.749 2.76-1.597 0-2.846-1.098-2.846-2.768 0-1.432 1.005-2.723 2.772-2.716 1.663.008 2.823 1.136 2.823 2.724z"/>
    </g>
</svg>
