<svg xmlns="http://www.w3.org/2000/svg" width="330" height="221" viewBox="0 0 330 221">
    <defs>
        <linearGradient id="prefix__a" x1="50.001%" x2="50.001%" y1="100%" y2="0%">
            <stop offset="0%" stop-color="gray" stop-opacity=".25"/>
            <stop offset="54%" stop-color="gray" stop-opacity=".12"/>
            <stop offset="100%" stop-color="gray" stop-opacity=".1"/>
        </linearGradient>
    </defs>
    <g fill="none">
        <path fill="#FFCB05" d="M170.82 39.656c-20.62 3.434-41.273 1.586-61.154-.975-19.882-2.56-39.717-5.83-60.381-5.19-13.286.416-28.064 3.022-37.257 11.02C3.185 52.207 1.92 62.728 2.004 72.243c.063 7.156.736 14.569 5.591 20.324 3.37 3.993 8.523 6.894 12.419 10.587 13.574 12.854 9.724 32.766 1.13 49.628-4.044 7.911-8.986 15.676-11.698 23.787-2.712 8.11-2.98 16.847 2.126 23.562 5.066 6.657 14.755 10.492 24.837 12.548 20.474 4.172 43.198 2.018 65.176-.978 48.647-6.663 96.75-17.44 144.716-28.198 17.753-3.979 35.584-7.981 52.664-13.84 9.485-3.246 19.134-7.332 25.207-13.793 7.709-8.203 7.778-19.526.162-26.394-12.777-11.533-41.36-9.365-51.292-22.49-5.47-7.208-3.244-16.901.935-25.422 8.953-18.28 26.499-36.228 23.971-54.597-1.732-12.618-13.972-23.182-30.232-26.103-17.04-3.059-38.819 2.05-48.456 14.595-9.924 12.952-30.233 21.17-48.44 24.197z" opacity=".1"/>
        <rect width="274" height="155" x="22" y="44" fill="url(#prefix__a)" rx="12.49"/>
        <rect width="273" height="152" x="23" y="46" fill="#FFF" rx="12.49"/>
        <rect width="273" height="152" x="23" y="46" fill="#FFF" rx="12.49"/>
        <rect width="273" height="152" x="23" y="46" fill="#00274C" opacity=".04" rx="12.49"/>
        <path fill="#00274C" d="M294.625 44H24.386c-.765 0-1.386.685-1.386 1.53V52h273v-6.457c.003-.406-.14-.797-.398-1.086-.258-.29-.609-.454-.977-.457z"/>
        <g fill="#FFF" transform="translate(26 46)">
            <circle cx="1.92" cy="2.051" r="1.857"/>
            <circle cx="6.92" cy="2.051" r="1.857"/>
            <circle cx="11.92" cy="2.051" r="1.857"/>
        </g>
        <rect width="228" height="113" x="41" y="85" fill="#FFF" rx="10.19"/>
        <rect width="66" height="7" x="31" y="59" fill="#00274C" opacity=".2" rx="3.5"/>
        <rect width="66" height="7" x="155" y="98" fill="#1F80FF" opacity=".2" rx="3.5"/>
        <rect width="103" height="7" x="155" y="118" fill="#1F80FF" opacity=".2" rx="3.5"/>
        <rect width="103" height="7" x="155" y="128" fill="#1F80FF" opacity=".2" rx="3.5"/>
        <rect width="103" height="7" x="155" y="139" fill="#1F80FF" opacity=".2" rx="3.5"/>
        <rect width="103" height="7" x="155" y="151" fill="#1F80FF" opacity=".2" rx="3.5"/>
        <rect width="204" height="7" x="53" y="164" fill="#1F80FF" opacity=".2" rx="3.5"/>
        <rect width="204" height="7" x="53" y="175" fill="#1F80FF" opacity=".2" rx="3.5"/>
        <rect width="204" height="7" x="53" y="186" fill="#1F80FF" opacity=".2" rx="3.5"/>
        <path fill="#1F80FF" d="M210.405 191s1.602 2.244-.74 5.635c-2.341 3.39-4.27 6.251-3.489 8.365 0 0 3.53-6.295 6.406-6.37 2.876-.076.985-3.846-2.177-7.63z"/>
        <path fill="#000" d="M210.364 191c.141.217.253.453.33.703 2.838 3.53 4.349 6.825 1.623 6.906-2.54.078-5.588 4.89-6.317 6.102.023.098.052.195.087.289 0 0 3.57-6.29 6.479-6.365 2.908-.075.997-3.854-2.202-7.635z" opacity=".1"/>
        <path fill="#FFCB05" d="M214 193.522c0 .817-.22 1.478-.5 1.478s-.5-.661-.5-1.478.28-.43.559-.43c.28 0 .441-.387.441.43z"/>
        <path fill="#FFCB05" d="M214.528 194.512c-.783.346-1.465.556-1.524.468-.059-.088.529-.442 1.305-.798.777-.357.473-.096.532 0 .059.096.467-.019-.313.33z"/>
        <path fill="#1F80FF" d="M201.594 191s-1.601 2.244.738 5.635c2.339 3.39 4.273 6.251 3.492 8.365 0 0-3.533-6.295-6.407-6.37-2.874-.076-.986-3.846 2.177-7.63z"/>
        <path fill="#000" d="M201.636 191c-.143.216-.255.453-.333.703-2.836 3.53-4.348 6.825-1.62 6.906 2.54.078 5.587 4.89 6.317 6.102-.022.098-.05.195-.085.289 0 0-3.574-6.29-6.481-6.365-2.908-.075-.998-3.854 2.202-7.635z" opacity=".1"/>
        <path fill="#FFCB05" d="M198 193.52c0 .818.226 1.48.504 1.48.277 0 .496-.662.496-1.48s-.277-.426-.547-.426-.453-.392-.453.426z"/>
        <path fill="#FFCB05" d="M197.473 194.512c.783.346 1.464.556 1.523.468.059-.088-.528-.442-1.304-.798-.777-.357-.473-.096-.532 0-.059.096-.47-.019.313.33z"/>
        <ellipse cx="205.5" cy="218.5" fill="#6C63FF" opacity=".1" rx="17.5" ry="2.5"/>
        <path fill="#65617D" d="M214.997 201.063l-.085.716-.115 1.012-.05.423-.116 1.012-.051.423-.119 1.01-1.335 11.512c-.122 1.027-1.72 1.829-3.664 1.829h-6.938c-1.93 0-3.525-.802-3.644-1.829l-1.341-11.503-.116-1.01-.05-.423-.119-1.012-.048-.423-.118-1.012-.085-.717c-.064-.591.8-1.071 1.891-1.071h14.21c1.09-.009 1.955.48 1.893 1.063z"/>
        <path fill="#9D9CB5" d="M215 202L214.883 203 197.12 203 197 202zM215 204L214.881 205 197.122 205 197 204zM214 205L213.883 206 197.115 206 197 205z"/>
        <rect width="87" height="64" x="53" y="94" fill="#1F80FF" opacity=".2" rx="8.5"/>
        <rect width="52" height="60" x="245" y="159" fill="#FFF" rx="6.61"/>
        <rect width="52" height="60" x="245" y="159" fill="#5A5773" opacity=".1" rx="6.61"/>
        <rect width="47" height="54" x="248" y="162" fill="#FFF" rx="6.61"/>
        <rect width="32" height="11" x="255" y="173" fill="#1F80FF" rx="5.5"/>
        <path fill="#1F80FF" d="M255 188H285V190H255zM251 193H292V195H251zM251 198H292V200H251zM251 203H292V205H251z"/>
        <rect width="123" height="60" y="139" fill="#FFF" rx="6.61"/>
        <rect width="123" height="60" y="139" fill="#5A5773" opacity=".1" rx="6.61"/>
        <rect width="110" height="54" x="6" y="142" fill="#FFF" rx="6.61"/>
        <rect width="76" height="11" x="22" y="153" fill="#1F80FF" rx="5.5"/>
        <path fill="#1F80FF" d="M25 168H95V170H25zM13 174H110V176H13zM13 178H110V180H13zM13 183H110V185H13z"/>
        <path fill="#000" d="M37.49 209.488c-.03-.16-.041-.323-.033-.486.056.334.091.64.112.91-.024-.137-.05-.278-.08-.424z" opacity=".05"/>
    </g>
</svg>
