<svg xmlns="http://www.w3.org/2000/svg" width="532" height="401" viewBox="0 0 532 401">
    <g fill="none">
        <path fill="#85848B" d="M0 396H532V401H0z"/>
        <path fill="#6C63FF" d="M247.73 252.54c4.023.517 8.199.845 12.052-.408.607-.189 1.275-.609 1.214-1.217-.043-.221-.137-.43-.273-.609-1.453-2.185-2.673-4.516-3.641-6.955-.039-.128-.118-.239-.225-.317-.125-.045-.263-.045-.388 0-1.778.469-3.314 1.619-5.08 2.112-.9.247-1.84.318-2.767.207-.801-.092-1.894-.755-2.622-.67.413 2.66 1.42 5.142 1.73 7.856zM322.2 246c2.52-1.72 5.133-3.525 6.621-6.179.106-.159.168-.343.179-.533-.025-.187-.099-.365-.213-.516-1.418-2.24-3.243-4.197-5.382-5.772-1.116.783-2.125 1.708-3 2.751-.634.665-2.388 1.72-2.405 2.734 0 .574.67 1.239.98 1.72.422.62.82 1.25 1.2 1.892.22.315 2.221 3.777 2.02 3.903z"/>
        <path fill="#514E7F" d="M263.967 259.837c.046.603-.12 1.203-.471 1.697-.276.275-.617.476-.991.586-5.469 1.943-11.798-.48-17.254 1.434-1.121.392-2.183.96-3.31 1.334-1.343.401-2.728.645-4.129.726-1.928.182-3.87.299-5.804.351-1.47.104-2.947-.025-4.377-.38-1.445-.367-2.666-1.327-3.356-2.64-.297-.582-.356-1.255-.165-1.88.085-.213.207-.411.36-.584.37-.412.804-.762 1.286-1.037l2.011-1.287c.943-.662 1.968-1.201 3.05-1.604.796-.258 1.64-.37 2.448-.586 2.825-.82 4.984-3.044 6.99-5.18l2.737-2.898c.255-.319.58-.577.95-.755.379-.126.782-.164 1.179-.111 2.659.188 5.226 1.042 7.462 2.482.571.425 1.189.786 1.84 1.077 1.605.62 3.663.152 5.144-.632.702-.375.549-.586.843-1.253.295-.667 1.015-1.095 1.64-.486.189.21.323.464.39.738.59 1.931.365 4.01.365 6.035-.017.317.023.634.118.936.15.306.33.596.537.867.042.072.08.146.112.222.361.897.497 1.867.395 2.828z"/>
        <path fill="#464353" d="M263.96 259.842c.047.603-.12 1.202-.471 1.696-.275.275-.616.476-.99.585-5.468 1.942-11.796-.48-17.252 1.433-1.12.392-2.182.96-3.308 1.333-1.343.4-2.729.644-4.129.726-1.928.18-3.869.298-5.803.35-1.47.104-2.947-.025-4.376-.38-1.446-.367-2.666-1.326-3.356-2.637-.297-.582-.356-1.254-.165-1.878.085-.213.207-.411.36-.584.318.66.548 1.538.749 1.853.548.947 1.48 1.614 2.56 1.831.797.049 1.598-.053 2.358-.298 4.954-1.217 10.221-1.234 14.98-3.076 1.634-.638 3.191-1.486 4.907-1.872 1.717-.386 3.54-.28 5.308-.427 2.796-.222 5.503-1.058 8.257-1.497.356.903.483 1.879.372 2.842z"/>
        <path fill="#514E7F" d="M334.955 245.491c-.26 2.087-1.574 3.883-3.019 5.406-1.444 1.523-3.077 2.893-4.226 4.647-1.415 2.176-2.052 4.873-3.891 6.71-.706.668-1.5 1.237-2.358 1.69-.962.57-1.98 1.04-3.036 1.404-2.748.883-5.707.682-8.578.469-.932-.01-1.855-.188-2.724-.528-.395-.202-.774-.436-1.131-.7-.72-.445-1.326-1.054-1.77-1.778-.217-.393-.278-.855-.17-1.292.164-.481.446-.913.82-1.257.645-.675 1.339-1.303 2.075-1.879 1.009-.654 1.918-1.453 2.7-2.37.479-.726.832-1.527 1.043-2.372.418-1.479.673-3 .76-4.534-.003-1.02.102-2.037.313-3.035.436-1.565 1.592-2.964 1.462-4.582-.053-.232-.032-.474.059-.694.137-.171.328-.29.542-.337.901-.361 1.851-.583 2.818-.658.982-.069 1.943.31 2.618 1.031.4.486.666 1.186 1.255 1.375.292.08.599.093.896.036 1.45-.148 2.983-.332 4.127-1.275 1.069-.963 1.689-2.332 1.71-3.776 0-.539-.242-1.102.59-1.185.624-.083 1.12.593 1.438 1.008 1.15 1.547 2.328 3.165 2.759 5.05.167-.065.345-.1.524-.1.747-.007 1.449.353 1.88.965.47.765.652 1.673.514 2.561z"/>
        <path fill="#464353" d="M334.953 245.597c-.262 2.076-1.586 3.863-3.04 5.378-1.455 1.516-3.1 2.878-4.258 4.623-1.425 2.164-2.066 4.847-3.918 6.676-.712.664-1.51 1.23-2.376 1.68-.968.568-1.993 1.036-3.057 1.398-2.767.878-5.748.678-8.64.466-.938-.01-1.868-.187-2.743-.525-.398-.201-.78-.434-1.14-.696-.725-.443-1.335-1.05-1.781-1.77.557-.265 1.164-.41 1.781-.424 1.283.071 2.22 1.274 3.45 1.645 1.752.525 3.497-.701 5.273-1.12 1.157-.271 2.375-.2 3.52-.59.956-.366 1.838-.897 2.607-1.568 1.054-.749 1.993-1.647 2.785-2.666.658-1.018 1.205-2.104 1.633-3.237.937-2.172 2.041-4.27 3.301-6.274.186-.318.412-.61.671-.873.279-.254.594-.43.908-.655 1.188-.89 1.68-2.358 2.096-3.797.113-.437.27-.862.47-1.268.751-.006 1.458.352 1.894.961.51.779.711 1.718.564 2.636zM238.705 151.035c.78 2.958-.348 6.07-1.27 9-1.386 4.41-2.332 8.95-2.822 13.549-.06 1.17-.295 2.325-.697 3.425-.437.988-1.181 1.823-1.69 2.764-1.393 2.473-1.358 5.49-1.056 8.319.2 1.863.502 3.721.874 5.555.454 2.243 1.015 4.586.36 6.775 1.098-.242 1.843 1.183 1.772 2.302-.071 1.118-.431 2.366.106 3.33 1.358.498 1.37 2.368 1.329 3.817.022 2.514.34 5.016.945 7.455 2.055 9.901 4.236 19.774 6.543 29.62 4.991 1.55 10.82 3.165 15.58 1.018.886-.397 1.772-1.03 1.973-1.989.052-.516-.013-1.038-.19-1.526l-2.255-8.224c-.55-1.988-1.099-4.042-.81-6.083.22-1.52.88-3.16.137-4.503-.254-.461-.656-.822-.951-1.26-1.181-1.733-.561-4.053-.467-6.153.037-.472.005-.946-.094-1.408-.162-.54-.388-1.059-.674-1.545-1.864-3.626-2.76-7.674-2.598-11.75.07-.52-.001-1.05-.207-1.533-.143-.2-.272-.409-.384-.627-.088-.38-.044-.779.124-1.13-.677-.515-1.288-1.11-1.819-1.775.664-.414 1.101-1.11 1.187-1.888.085-.778-.191-1.552-.75-2.1.491-.1.885-.467 1.019-.95.133-.484-.016-1.002-.387-1.34-.29-.201-.673-.29-.88-.592-.319-.438-.059-1.047.201-1.514l1.376-2.491c1.028-1.852 1.258-4.142 2.362-5.917 1.583-2.586 2.617-5.467 3.638-8.32l3.975-10.987 2.676 2.326c.89.682 1.637 1.535 2.197 2.508.38.963.62 1.975.714 3.006.98 5.964 4.725 11.136 6.113 17.01.307 1.309.514 2.681 1.264 3.8.268.343.509.707.72 1.088.196.582.297 1.191.301 1.805.251 2.431 1.544 4.634 3.544 6.035 1.317.905 2.953 1.526 3.667 2.958.143.444.342.867.591 1.26.638.77 2.014.859 2.286 1.823.153.538-.13 1.183.17 1.657.172.219.398.388.656.49l3.845 1.924c4.3 2.153 6.497 7.1 9.668 10.703 1.095 1.174 2.065 2.459 2.894 3.834 1.37 2.456 2.002 5.538 4.317 7.1.623.324 1.189.745 1.678 1.249.726.958.46 2.302.525 3.509.065 1.207.987 2.644 2.132 2.277-.401 1.462-.401 3.006 0 4.468 5.03-.26 9.827-2.206 13.62-5.527 1.121-.982 2.202-2.236 2.214-3.727.017-.258-.04-.514-.165-.74-.227-.291-.527-.517-.869-.657-3.596-1.952-4.677-6.478-6.496-10.153-1.589-3.242-3.94-6.035-5.906-9.047-4.276-6.478-7.193-14.318-13.66-18.596-1.424-.94-3.077-1.775-3.792-3.331-.396-.87-.443-1.864-.756-2.763-.313-.9-1.063-1.775-2.02-1.775.532-1.302.426-2.888.461-4.296.036-.625-.036-1.251-.213-1.852-.245-.646-.564-1.261-.95-1.834-1.688-2.862-2.531-6.144-2.434-9.467.048-1.71.349-3.473-.165-5.106-.26-.823-.715-1.574-1.028-2.367-.471-1.436-.72-2.937-.738-4.45l-.354-5.685c-.054-1.894-.3-3.777-.733-5.621-1.18-4.414-2.362-22.904-6.408-24.987-4.045-2.083-10.996 12.147-15.55 12.425-2.014.084-4.005.47-5.906 1.142-3.03 1.136-5.569 3.255-8.044 5.325l-8.374 7.047c-1.772 1.462-3.237 2.858-5.192 3.888z"/>
        <path fill="#33323D" d="M370 166.79v-7.362c0-11.283-9.108-20.428-20.339-20.428H60.34C49.109 139 40 148.145 40 159.428V173l330-6.21z"/>
        <path fill="#FFCB05" d="M141.02 130.232s-.827 51.313 8.27 68.196c9.098 16.884 12.997 90.332 12.997 90.332s95.373 9.866 161.834-11.815C390.583 255.265 532 246.398 532 246.398l-23.831-160.62s-117.734-7.55-184.71 24.392c-66.974 31.942-182.44 20.062-182.44 20.062z"/>
        <path fill="#000" d="M141.02 130.232s-.827 51.313 8.27 68.196c9.098 16.884 12.997 90.332 12.997 90.332s95.373 9.866 161.834-11.815C390.583 255.265 532 246.398 532 246.398l-23.831-160.62s-117.734-7.55-184.71 24.392c-66.974 31.942-182.44 20.062-182.44 20.062z" opacity=".1"/>
        <path fill="#FFCB05" d="M162.587 148.713s-2.982 42.402 4.5 55.95c7.48 13.549 7.829 74.031 7.829 74.031s85.79 3.988 146.817-16.826C382.76 241.055 511 227.554 511 227.554L496.427 96.005s-106.11-1.094-168.04 28.203c-61.929 29.298-165.8 24.505-165.8 24.505z"/>
        <ellipse cx="321.218" cy="190.366" fill="#000" opacity=".1" rx="22.266" ry="47.749" transform="rotate(-7.1 321.218 190.366)"/>
        <path fill="#000" d="M443.173 8S329.007 36.914 275.17 87.808C221.334 138.703 108 162.802 108 162.802s14.93 49.03 28.74 62.295C150.55 238.362 176.743 307 176.743 307s93.622-19.862 150.112-60.861C383.345 205.14 515 153.361 515 153.361L443.173 8z" opacity=".2"/>
        <path fill="#FFCB05" d="M107 154.799s14.925 49.037 28.723 62.302C149.522 230.366 175.727 299 175.727 299s93.634-19.857 150.131-60.856C382.355 197.144 514 145.38 514 145.38L442.172 0S328.01 28.915 274.173 79.81C220.336 130.706 107 154.799 107 154.799z"/>
        <path fill="#000" d="M107 154.799s14.925 49.037 28.723 62.302C149.522 230.366 175.727 299 175.727 299s93.634-19.857 150.131-60.856C382.355 197.144 514 145.38 514 145.38L442.172 0S328.01 28.915 274.173 79.81C220.336 130.706 107 154.799 107 154.799z" opacity=".1"/>
        <path fill="#FFCB05" d="M132 166.413s10.157 41.168 21.438 51.73C164.718 228.705 183.573 286 183.573 286s82.926-22.528 134.67-61C369.987 186.528 488 134.443 488 134.443L433.81 14S332.417 45.492 282.41 92.295C232.404 139.1 132 166.413 132 166.413z"/>
        <ellipse cx="296.122" cy="157.143" fill="#000" opacity=".1" rx="22.266" ry="47.75" transform="rotate(-24.97 296.122 157.143)"/>
        <path fill="#000" d="M378 173.548v203.828c0 4.675-1.856 9.159-5.159 12.464-3.303 3.305-7.783 5.16-12.453 5.16H57.6C47.879 394.997 40 387.107 40 377.376V153c8.676 3.226 8.676 3.226 17.6 2.954h302.788c9.713 0 17.592 7.871 17.612 17.594z" opacity=".1"/>
        <path fill="#00274C" d="M378 176.554v203.823c0 9.734-7.888 17.623-17.612 17.623H57.6C47.879 397.997 40 390.107 40 380.377V156c8.676 3.22 8.676 3.22 17.6 2.954h302.788c9.715 0 17.596 7.875 17.612 17.6z"/>
        <path fill="#000" d="M377 252v65h-62.97c-17.759-.24-32.03-14.72-32.03-32.5s14.271-32.26 32.03-32.5H377z" opacity=".1"/>
        <path fill="#33323D" d="M378 250v65h-62.97c-17.759-.24-32.03-14.717-32.03-32.494s14.271-32.255 32.03-32.494L378 250z"/>
        <circle cx="318.5" cy="284.5" r="12.5" fill="#000" opacity=".1"/>
        <circle cx="319.5" cy="282.5" r="12.5" fill="#FFCB05"/>
        <g fill="#000" opacity=".05">
            <path d="M1.23 8.237C.73 9.602.42 11.03.311 12.48c.262-1.002.615-1.978 1.053-2.916l-.136-1.328zM32.312 2.18c.09-.415.132-.84.123-1.264-.17.862-.288 1.66-.376 2.362.076-.36.159-.703.253-1.098zM.906 49.284c.188-.283.294-1.24.341-2.568-.426 1.028-.651 2.128-.665 3.241.08-.236.19-.462.324-.673z" transform="translate(438 227)"/>
        </g>
    </g>
</svg>
