<svg xmlns="http://www.w3.org/2000/svg" width="87" height="100" viewBox="0 0 87 100">
    <g fill="none" fill-rule="evenodd">
        <path fill="#FFFFFE" d="M69.232 93.452L39.579 99.387 9.803 93.39 9.803 30.061 69.232 30.123 69.232 93.452"/>
        <path fill="#003B3A" d="M10.423 92.931l29.157 5.82 29.033-5.82V31.289h-58.19V92.93zM39.579 100L9.19 93.934V30.061l60.655.002v63.87L39.58 100z"/>
        <path fill="#003B3A" d="M53.899 76.168L53.899 75.351 66.782 75.351 66.782 69.325 11.641 69.325 11.641 75.351 24.288 75.351 24.288 76.168 11.641 76.168 11.641 91.58 39.212 96.933 66.782 91.58 66.782 76.168 53.899 76.168"/>
        <path fill="#FFFFFE" d="M30.45 77.914c-1.55 0-2.267-1.015-2.267-2.148 0-1.131.749-2.146 2.293-2.146.563 0 .999.118 1.345.342l-.525.859c-.231-.13-.461-.224-.84-.224-.627 0-.98.467-.98 1.133 0 .697.333 1.2.993 1.2.462 0 .705-.161.904-.292l.486.821c-.217.187-.768.455-1.409.455M32.472 77.301L33.697 77.301 33.697 73.62 32.472 73.62zM36.375 74.476L36.375 77.301 35.309 77.301 35.309 74.476 34.31 74.476 34.31 73.62 37.373 73.62 37.373 74.476 36.375 74.476M40.417 75.913L40.417 77.301 39.284 77.301 39.284 75.913 37.986 73.62 39.237 73.62 39.901 74.941 39.907 74.941 40.565 73.62 41.662 73.62 40.417 75.913M44.45 74.566c-.693 0-.958.53-.958 1.17 0 .653.259 1.232.933 1.232.693 0 .928-.554.928-1.195 0-.647-.223-1.207-.904-1.207zm0 3.348c-1.428 0-2.175-1.04-2.175-2.141 0-1.114.723-2.153 2.15-2.153 1.434 0 2.138 1.02 2.138 2.116 0 1.114-.68 2.178-2.114 2.178zM48.933 74.476L48.933 75.156 50.096 75.156 50.096 75.952 48.933 75.952 48.933 77.301 47.789 77.301 47.789 73.62 50.239 73.62 50.239 74.476 48.933 74.476M18.795 81.563h-.604v4.36h.663c1.385 0 2.037-.767 2.037-2.229 0-1.483-.652-2.13-2.096-2.13zm-.118 6.167H15.93v-7.975h2.818c3.09 0 4.534 1.568 4.534 3.868s-1.48 4.107-4.605 4.107zM23.894 87.73L23.894 79.755 28.715 79.755 28.715 81.61 26.063 81.61 26.063 82.809 28.404 82.809 28.404 84.533 26.063 84.533 26.063 85.874 28.796 85.874 28.796 87.73 23.894 87.73M33.951 81.611L33.951 87.73 31.606 87.73 31.606 81.611 29.408 81.611 29.408 79.755 36.148 79.755 36.148 81.611 33.951 81.611M39.617 81.443h-.63v1.785h.7c.654 0 .968-.336.968-.886 0-.6-.303-.899-1.038-.899zm1.493 6.287l-1.318-2.274c-.362-.624-.478-.695-.722-.695h-.082v2.97H36.76v-7.976h2.973c1.982 0 3.102.826 3.102 2.43 0 1.295-.794 1.929-1.516 2.192v.024c.256.192.582.564.979 1.257L43.5 87.73h-2.39zM47.848 81.511c-1.385 0-1.915.982-1.915 2.173 0 1.214.518 2.29 1.868 2.29 1.385 0 1.854-1.03 1.854-2.22 0-1.203-.445-2.243-1.807-2.243zm0 6.22c-2.854 0-4.348-1.931-4.348-3.977 0-2.07 1.445-4 4.3-4 2.868 0 4.277 1.896 4.277 3.93 0 2.07-1.361 4.046-4.229 4.046zM52.69 87.73L55.141 87.73 55.141 79.755 52.69 79.755zM60.296 81.611L60.296 87.73 57.951 87.73 57.951 81.611 55.754 81.611 55.754 79.755 62.493 79.755 62.493 81.611 60.296 81.611"/>
        <path fill="#99CEA9" d="M11.641 68.098L66.782 68.098 66.782 31.902 11.641 31.902z"/>
        <path fill="#239C8A" d="M75.36 16.016l-5.823 3.122-7.517 12.455-12.963-8.905-7.504 1.603-.136-7.485s-6.772-2.569-6.86-2.696c-.262.137-5.997 3.12-6.203 3.37l-1.035 3.478 2.66 3.051-.304 3.325 1.615.066.847.94-6.208 3.303-8.715 10.22-11.999-3.75-3.198-3.562L0 34.397l2.864 5.34 16.488 7.475 10.532-10.629 5.074 5.412-1.036 5.91-.495.351c-2.826 1.695-17.074 10.31-18.482 12.53l-.817 2.13 3.03 5.182h44.274l3.025-5.181-.815-2.131c-.953-1.5-7.766-5.92-12.956-9.152l-4.47-2.583 4.373-15.857 13.127 4.337 7.775-16.045 5.033-3.01 1.899-2.148-3.064-.312M87 10.023l-.08-.207-12.174 4.207c.109.222.195.457.257.7L87 10.024M65.765 0l-.209.08 4.204 12.19c.222-.108.455-.194.698-.256L65.765 0"/>
        <path fill="#239C8A" d="M55.754 21.94l.054.146 12.199-4.2c-.108-.225-.194-.46-.256-.708L55.754 21.94M55.844 9.202l-.09.202 11.948 5.32c.078-.239.182-.465.305-.68L55.844 9.202M77.81.095l-.168-.078L77.608 0l-5.312 11.965c.237.078.464.18.679.305L77.81.095"/>
        <path fill="#003B3A" d="M54.085 59.338l-3.812-.314 2.844-2.286 2.5 1.848 2.525 4.898-4.057-4.146zm-24.083 6.709l-.014.006-2.86 1.058s1.578-2.793 1.585-2.81l3.844-1.913-2.555 3.659zm-11.856-1.9l14.307-7.15v3.321l-7.186 3.227-7.121.602zM51.029 51.3l-3.71 8.278-9.21 2.93 3.586-3.595-6.054 2.41.003-4.55 6.48-4.135-8.077 3.33v-2.538l10.005-4.22-7.672 2.212-.002-1.525-2.787-2.043c-2.855 1.73-17.251 10.52-18.674 12.784l-.825 2.174 3.06 5.287h44.735l3.057-5.287-.824-2.174c-.963-1.53-7.847-6.041-13.09-9.338zM4.901 28.834h1.226s-.029 2.091-.02 2.454L4.9 28.834M7.965 31.902H6.739s.03-2.09.022-2.454l1.204 2.454"/>
        <path fill="#003B3A" d="M59.725 34.693l-8.996-4.42-3.732 8.71-7.46-1.343-3.778 1.55-.022-.019-5.129-3.963.074-.038 9.455-4.715.544-2.56.03-.007 9.326-2.321 10.73 7.484-1.042 1.642zm-19.002 11.07l-1.116 3.062h-1.031l1.05-2.976v-1.922l.53-.5.358 1.4 4.784-.3-4.575 1.236zm-10.61-23.582l-1.548-1.516 1.98.648 3.355-.578.017.012.835.609 1.154-.13.476.364-.73.42 1.59.128-1.768.995-1.99-1.49s-3.362.54-3.37.538zm9.038 2.07l-1.343 2.828.23-2.733-1.516-.284 1.61-.662 1.02.852zM5.516 38.703L4.91 33.37l1.23 5.533-.624-.2zm69.843-22.646l-5.822 3.186-7.517 12.711-12.962-9.089-7.504 1.636-.136-7.639s-6.773-2.621-6.86-2.75c-.263.139-5.998 3.183-6.203 3.439l-1.036 3.549 2.66 3.114-.304 3.393 1.615.068.847.96-6.207 3.37-8.716 10.43-10.332-3.296-.013-5.993H4.884l-.25-2.208H3.52v5.744l-1.503-1.71L0 34.815l2.865 5.451 3.99 1.846.034.155v-.14l12.464 5.767 10.531-10.847 5.074 5.522-1.038 6.046 3.395 1.693 9.562-3.058 3.713-13.663 13.126 4.427 7.776-16.376 5.032-3.072 1.899-2.192-3.064-.317z"/>
    </g>
</svg>
