<svg xmlns="http://www.w3.org/2000/svg" width="330" height="237" viewBox="0 0 330 237">
    <g fill="none" fill-rule="evenodd">
        <ellipse cx="165" cy="217" fill="#FFCB05" fill-rule="nonzero" opacity=".1" rx="165" ry="20"/>
        <path stroke="#535461" stroke-width="2" d="M282 227s8.451-11 7.768-21.914c-.315-4.576.829-9.132 3.261-12.986 1.169-1.82 2.498-3.528 3.971-5.1"/>
        <path fill="#1F80FF" fill-rule="nonzero" d="M297.2 179.887c-.616 1.539.392 7.113.392 7.113s4.578-3.35 5.194-4.89c.614-1.538-.138-3.282-1.68-3.896-1.542-.613-3.29.135-3.907 1.673zM289.057 186.451c.322 1.567 4.21 5.549 4.21 5.549s2.02-5.103 1.698-6.669c-.208-1.013-.964-1.843-1.982-2.176-1.018-.334-2.144-.12-2.954.56s-1.18 1.723-.972 2.736zM283.724 201.09C284.78 202.355 290 204 290 204s-.9-5.7-1.955-6.966c-.682-.82-1.725-1.19-2.735-.973-1.01.218-1.834.991-2.16 2.028-.328 1.038-.109 2.181.574 3zM282.422 213.313C283.239 214.64 288 217 288 217s.02-5.334-.797-6.66c-.528-.86-1.473-1.37-2.477-1.339-1.005.031-1.916.598-2.392 1.488-.475.89-.442 1.966.088 2.824zM299.138 194.781c-1.536.633-7.138-.31-7.138-.31s3.307-4.61 4.843-5.243 3.295.097 3.929 1.631c.634 1.534-.098 3.29-1.634 3.922zM296.387 208.994c-1.574.145-6.387-2.427-6.387-2.427s4.314-3.41 5.887-3.555c1.019-.095 2.008.388 2.595 1.267.587.88.682 2.02.25 2.993-.433.973-1.327 1.63-2.345 1.722zM292.823 221.932c-1.56.423-6.823-1.264-6.823-1.264s3.779-4.144 5.338-4.568c1.559-.424 3.155.538 3.565 2.149.41 1.61-.521 3.26-2.08 3.683z"/>
        <path fill="#000" fill-rule="nonzero" d="M297.2 179.887c-.616 1.539.392 7.113.392 7.113s4.578-3.35 5.194-4.89c.614-1.538-.138-3.282-1.68-3.896-1.542-.613-3.29.135-3.907 1.673zM289.057 186.451c.322 1.567 4.21 5.549 4.21 5.549s2.02-5.103 1.698-6.669c-.208-1.013-.964-1.843-1.982-2.176-1.018-.334-2.144-.12-2.954.56s-1.18 1.723-.972 2.736zM283.724 201.09C284.78 202.355 290 204 290 204s-.9-5.7-1.955-6.966c-.682-.82-1.725-1.19-2.735-.973-1.01.218-1.834.991-2.16 2.028-.328 1.038-.109 2.181.574 3zM282.422 213.313C283.239 214.64 288 217 288 217s.02-5.334-.797-6.66c-.528-.86-1.473-1.37-2.477-1.339-1.005.031-1.916.598-2.392 1.488-.475.89-.442 1.966.088 2.824zM299.138 194.781c-1.536.633-7.138-.31-7.138-.31s3.307-4.61 4.843-5.243 3.295.097 3.929 1.631c.634 1.534-.098 3.29-1.634 3.922zM296.387 208.994c-1.574.145-6.387-2.427-6.387-2.427s4.314-3.41 5.887-3.555c1.019-.095 2.008.388 2.595 1.267.587.88.682 2.02.25 2.993-.433.973-1.327 1.63-2.345 1.722zM292.823 221.932c-1.56.423-6.823-1.264-6.823-1.264s3.779-4.144 5.338-4.568c1.559-.424 3.155.538 3.565 2.149.41 1.61-.521 3.26-2.08 3.683z" opacity=".25"/>
        <path stroke="#535461" stroke-width="2" d="M282 226s12.264-6.478 16.018-16.62c1.547-4.264 4.441-7.913 8.247-10.399 1.816-1.166 3.736-2.164 5.735-2.981"/>
        <path fill="#1F80FF" fill-rule="nonzero" d="M314.65 189.796C313.406 190.874 312 196 312 196s5.808-1.13 7.052-2.208c1.244-1.078 1.267-2.847.051-3.95-1.216-1.104-3.21-1.125-4.453-.046zM305.048 192.263c-.367 1.563 1.508 6.737 1.508 6.737s4.003-3.894 4.37-5.458c.237-1.011-.104-2.068-.895-2.771-.79-.704-1.91-.948-2.939-.64-1.028.308-1.807 1.12-2.044 2.132zM294.141 203.838c.503 1.552 4.838 5.162 4.838 5.162s1.416-5.39.913-6.943c-.326-1.004-1.175-1.762-2.227-1.988-1.052-.226-2.149.113-2.875.89-.727.778-.975 1.875-.649 2.88zM288.028 213.265c.227 1.57 3.863 5.735 3.863 5.735s2.32-4.95 2.093-6.52c-.146-1.017-.85-1.881-1.844-2.268-.995-.387-2.13-.237-2.979.392-.848.63-1.28 1.644-1.133 2.66zM310.072 203.999c-1.576-.043-6.072-3.167-6.072-3.167s4.644-2.875 6.22-2.832c1.576.043 2.82 1.421 2.779 3.078-.04 1.656-1.352 2.964-2.927 2.921zM303.077 215.837c-1.548-.54-5.077-4.956-5.077-4.956s5.448-1.288 6.996-.75c1.548.54 2.373 2.254 1.844 3.83-.53 1.575-2.215 2.415-3.763 1.876zM293.662 225.961c-1.57-.265-5.662-4.002-5.662-4.002s5.01-2.202 6.58-1.937c1.57.265 2.636 1.809 2.383 3.449-.254 1.64-1.731 2.755-3.3 2.49z"/>
        <path fill="#FFCB05" fill-rule="nonzero" d="M187.577 28.029c-16.284-.566-31.793-5.823-46.602-11.574-14.81-5.751-29.479-12.124-45.372-15.171C85.38-.676 73.69-.954 65.453 4.527 57.527 9.802 54.966 18.906 53.59 27.354c-1.036 6.356-1.645 13.045 1.194 18.995 1.97 4.131 5.47 7.604 7.89 11.56 8.42 13.769 2.468 30.746-6.657 44.19-4.28 6.306-9.245 12.322-12.548 19.035-3.303 6.713-4.83 14.405-1.94 21.253 2.863 6.787 9.69 11.885 17.083 15.471 15.018 7.283 32.714 9.367 49.97 10.548 38.2 2.613 76.603 1.482 114.903.349 14.174-.42 28.411-.845 42.355-3.036 7.743-1.218 15.737-3.15 21.359-7.813 7.136-5.92 8.905-15.945 4.123-23.369-8.02-12.452-30.199-15.545-35.805-28.908-3.086-7.355.083-15.549 4.568-22.37 9.62-14.635 25.746-27.474 26.596-44.2.583-11.49-7.169-22.995-19.155-28.43-12.564-5.698-29.986-4.982-39.254 4.45-9.544 9.712-26.317 13.449-40.694 12.95z" opacity=".1"/>
        <ellipse cx="191" cy="196" fill="#FBD56F" fill-rule="nonzero" rx="11" ry="12"/>
        <ellipse cx="191" cy="196" fill="#000" fill-rule="nonzero" opacity=".1" rx="11" ry="12"/>
        <ellipse cx="193" cy="196.5" fill="#FBD56F" fill-rule="nonzero" rx="11" ry="11.5"/>
        <path fill="#FBD56F" fill-rule="nonzero" d="M197.545 206.85l-1.148-.603s-.537 2.113-.362 3.62c.036.313.274.571.598.648 2.642.618 15.231 3.254 23.888-.458.256-.11.43-.339.46-.602.107-.926-.27-2.836-.42-3.208-.322-.801-23.016.603-23.016.603z"/>
        <path fill="#000" fill-rule="nonzero" d="M197.545 206.85l-1.148-.603s-.537 2.113-.362 3.62c.036.313.274.571.598.648 2.642.618 15.231 3.254 23.888-.458.256-.11.43-.339.46-.602.107-.926-.27-2.836-.42-3.208-.322-.801-23.016.603-23.016.603z" opacity=".1"/>
        <ellipse cx="209" cy="206.5" fill="#FBD56F" fill-rule="nonzero" rx="12" ry="2.5"/>
        <path fill="#FBD56F" fill-rule="nonzero" d="M202.545 202.85l-1.148-.603s-.537 2.113-.362 3.62c.036.313.274.571.598.648 2.642.618 15.231 3.254 23.888-.458.256-.11.43-.339.46-.602.107-.926-.27-2.836-.42-3.208-.322-.801-23.016.603-23.016.603z"/>
        <path fill="#000" fill-rule="nonzero" d="M202.545 202.85l-1.148-.603s-.537 2.113-.362 3.62c.036.313.274.571.598.648 2.642.618 15.231 3.254 23.888-.458.256-.11.43-.339.46-.602.107-.926-.27-2.836-.42-3.208-.322-.801-23.016.603-23.016.603z" opacity=".1"/>
        <ellipse cx="213" cy="202.5" fill="#FBD56F" fill-rule="nonzero" rx="12" ry="2.5"/>
        <path fill="#FBD56F" fill-rule="nonzero" d="M206.545 197.85l-1.148-.603s-.537 2.113-.362 3.62c.036.313.274.571.598.648 2.642.618 15.231 3.254 23.888-.458.256-.11.43-.339.46-.602.107-.926-.27-2.836-.42-3.208-.322-.801-23.016.603-23.016.603z"/>
        <path fill="#000" fill-rule="nonzero" d="M206.545 197.85l-1.148-.603s-.537 2.113-.362 3.62c.036.313.274.571.598.648 2.642.618 15.231 3.254 23.888-.458.256-.11.43-.339.46-.602.107-.926-.27-2.836-.42-3.208-.322-.801-23.016.603-23.016.603z" opacity=".1"/>
        <ellipse cx="217" cy="197.5" fill="#FBD56F" fill-rule="nonzero" rx="12" ry="2.5"/>
        <path fill="#FBD56F" fill-rule="nonzero" d="M201.545 191.85l-1.148-.603s-.537 2.113-.362 3.62c.036.313.274.571.598.648 2.642.618 15.231 3.254 23.888-.458.256-.11.43-.339.46-.602.107-.926-.27-2.836-.42-3.208-.322-.801-23.016.603-23.016.603z"/>
        <path fill="#000" fill-rule="nonzero" d="M201.545 191.85l-1.148-.603s-.537 2.113-.362 3.62c.036.313.274.571.598.648 2.642.618 15.231 3.254 23.888-.458.256-.11.43-.339.46-.602.107-.926-.27-2.836-.42-3.208-.322-.801-23.016.603-23.016.603z" opacity=".1"/>
        <ellipse cx="213" cy="191.5" fill="#FBD56F" fill-rule="nonzero" rx="12" ry="2.5"/>
        <path fill="#FBD56F" fill-rule="nonzero" d="M211.545 187.85l-1.148-.603s-.537 2.113-.362 3.62c.036.313.274.571.598.648 2.642.618 15.231 3.254 23.888-.458.256-.11.43-.339.46-.602.107-.926-.27-2.836-.42-3.208-.322-.801-23.016.603-23.016.603z"/>
        <path fill="#000" fill-rule="nonzero" d="M211.545 187.85l-1.148-.603s-.537 2.113-.362 3.62c.036.313.274.571.598.648 2.642.618 15.231 3.254 23.888-.458.256-.11.43-.339.46-.602.107-.926-.27-2.836-.42-3.208-.322-.801-23.016.603-23.016.603z" opacity=".1"/>
        <ellipse cx="223" cy="186.5" fill="#FBD56F" fill-rule="nonzero" rx="12" ry="2.5"/>
        <path fill="#FBD56F" fill-rule="nonzero" d="M205.545 184.85l-1.148-.603s-.537 2.113-.362 3.62c.036.313.274.571.598.648 2.642.618 15.231 3.254 23.888-.458.256-.11.43-.339.46-.602.107-.926-.27-2.836-.42-3.208-.322-.801-23.016.603-23.016.603z"/>
        <path fill="#000" fill-rule="nonzero" d="M205.545 184.85l-1.148-.603s-.537 2.113-.362 3.62c.036.313.274.571.598.648 2.642.618 15.231 3.254 23.888-.458.256-.11.43-.339.46-.602.107-.926-.27-2.836-.42-3.208-.322-.801-23.016.603-23.016.603z" opacity=".1"/>
        <ellipse cx="216" cy="183.5" fill="#FBD56F" fill-rule="nonzero" rx="12" ry="2.5"/>
        <path fill="#FBD56F" fill-rule="nonzero" d="M209.545 178.85l-1.148-.603s-.537 2.113-.362 3.62c.036.313.274.571.598.648 2.642.618 15.231 3.254 23.888-.458.256-.11.43-.339.46-.602.107-.926-.27-2.836-.42-3.208-.322-.801-23.016.603-23.016.603z"/>
        <path fill="#000" fill-rule="nonzero" d="M209.545 178.85l-1.148-.603s-.537 2.113-.362 3.62c.036.313.274.571.598.648 2.642.618 15.231 3.254 23.888-.458.256-.11.43-.339.46-.602.107-.926-.27-2.836-.42-3.208-.322-.801-23.016.603-23.016.603z" opacity=".1"/>
        <ellipse cx="221" cy="178.5" fill="#FBD56F" fill-rule="nonzero" rx="12" ry="2.5"/>
        <path fill="#FBD56F" fill-rule="nonzero" d="M211.545 171.85l-1.148-.603s-.537 2.113-.362 3.62c.036.313.274.571.598.648 2.642.618 15.231 3.254 23.888-.458.256-.11.43-.339.46-.602.107-.926-.27-2.836-.42-3.208-.322-.801-23.016.603-23.016.603z"/>
        <path fill="#000" fill-rule="nonzero" d="M211.545 171.85l-1.148-.603s-.537 2.113-.362 3.62c.036.313.274.571.598.648 2.642.618 15.231 3.254 23.888-.458.256-.11.43-.339.46-.602.107-.926-.27-2.836-.42-3.208-.322-.801-23.016.603-23.016.603z" opacity=".1"/>
        <ellipse cx="223" cy="171.5" fill="#FBD56F" fill-rule="nonzero" rx="12" ry="2.5"/>
        <path fill="#FBD56F" fill-rule="nonzero" d="M232.545 208.85l-1.148-.603s-.537 2.113-.362 3.62c.036.313.274.571.598.648 2.642.618 15.231 3.254 23.888-.458.256-.11.43-.339.46-.602.107-.926-.27-2.836-.42-3.208-.322-.801-23.016.603-23.016.603z"/>
        <path fill="#000" fill-rule="nonzero" d="M232.545 208.85l-1.148-.603s-.537 2.113-.362 3.62c.036.313.274.571.598.648 2.642.618 15.231 3.254 23.888-.458.256-.11.43-.339.46-.602.107-.926-.27-2.836-.42-3.208-.322-.801-23.016.603-23.016.603z" opacity=".1"/>
        <ellipse cx="243" cy="208.5" fill="#FBD56F" fill-rule="nonzero" rx="12" ry="2.5"/>
        <path fill="#FBD56F" fill-rule="nonzero" d="M236.545 202.85l-1.148-.603s-.537 2.113-.362 3.62c.036.313.274.571.598.648 2.642.618 15.231 3.254 23.888-.458.256-.11.43-.339.46-.602.107-.926-.27-2.836-.42-3.208-.322-.801-23.016.603-23.016.603z"/>
        <path fill="#000" fill-rule="nonzero" d="M236.545 202.85l-1.148-.603s-.537 2.113-.362 3.62c.036.313.274.571.598.648 2.642.618 15.231 3.254 23.888-.458.256-.11.43-.339.46-.602.107-.926-.27-2.836-.42-3.208-.322-.801-23.016.603-23.016.603z" opacity=".1"/>
        <ellipse cx="247" cy="202.5" fill="#FBD56F" fill-rule="nonzero" rx="12" ry="2.5"/>
        <path fill="#FBD56F" fill-rule="nonzero" d="M231.545 197.85l-1.148-.603s-.537 2.113-.362 3.62c.036.313.274.571.598.648 2.642.618 15.231 3.254 23.888-.458.256-.11.43-.339.46-.602.107-.926-.27-2.836-.42-3.208-.322-.801-23.016.603-23.016.603z"/>
        <path fill="#000" fill-rule="nonzero" d="M231.545 197.85l-1.148-.603s-.537 2.113-.362 3.62c.036.313.274.571.598.648 2.642.618 15.231 3.254 23.888-.458.256-.11.43-.339.46-.602.107-.926-.27-2.836-.42-3.208-.322-.801-23.016.603-23.016.603z" opacity=".1"/>
        <ellipse cx="242" cy="197.5" fill="#FBD56F" fill-rule="nonzero" rx="12" ry="2.5"/>
        <path fill="#FBD56F" fill-rule="nonzero" d="M242.545 192.85l-1.148-.603s-.537 2.113-.362 3.62c.036.313.274.571.598.648 2.642.618 15.231 3.254 23.888-.458.256-.11.43-.339.46-.602.107-.926-.27-2.836-.42-3.208-.322-.801-23.016.603-23.016.603z"/>
        <path fill="#000" fill-rule="nonzero" d="M242.545 192.85l-1.148-.603s-.537 2.113-.362 3.62c.036.313.274.571.598.648 2.642.618 15.231 3.254 23.888-.458.256-.11.43-.339.46-.602.107-.926-.27-2.836-.42-3.208-.322-.801-23.016.603-23.016.603z" opacity=".1"/>
        <ellipse cx="253" cy="192.5" fill="#FBD56F" fill-rule="nonzero" rx="12" ry="2.5"/>
        <path fill="#FBD56F" fill-rule="nonzero" d="M235.545 189.85l-1.148-.603s-.537 2.113-.362 3.62c.036.313.274.571.598.648 2.642.618 15.231 3.254 23.888-.458.256-.11.43-.339.46-.602.107-.926-.27-2.836-.42-3.208-.322-.801-23.016.603-23.016.603z"/>
        <path fill="#000" fill-rule="nonzero" d="M235.545 189.85l-1.148-.603s-.537 2.113-.362 3.62c.036.313.274.571.598.648 2.642.618 15.231 3.254 23.888-.458.256-.11.43-.339.46-.602.107-.926-.27-2.836-.42-3.208-.322-.801-23.016.603-23.016.603z" opacity=".1"/>
        <ellipse cx="246" cy="189.5" fill="#FBD56F" fill-rule="nonzero" rx="12" ry="2.5"/>
        <path fill="#FBD56F" fill-rule="nonzero" d="M239.545 184.85l-1.148-.603s-.537 2.113-.362 3.62c.036.313.274.571.598.648 2.642.618 15.231 3.254 23.888-.458.256-.11.43-.339.46-.602.107-.926-.27-2.836-.42-3.208-.322-.801-23.016.603-23.016.603z"/>
        <path fill="#000" fill-rule="nonzero" d="M239.545 184.85l-1.148-.603s-.537 2.113-.362 3.62c.036.313.274.571.598.648 2.642.618 15.231 3.254 23.888-.458.256-.11.43-.339.46-.602.107-.926-.27-2.836-.42-3.208-.322-.801-23.016.603-23.016.603z" opacity=".1"/>
        <ellipse cx="250" cy="184.5" fill="#FBD56F" fill-rule="nonzero" rx="12" ry="2.5"/>
        <path fill="#FBD56F" fill-rule="nonzero" d="M242.545 177.85l-1.148-.603s-.537 2.113-.362 3.62c.036.313.274.571.598.648 2.642.618 15.231 3.254 23.888-.458.256-.11.43-.339.46-.602.107-.926-.27-2.836-.42-3.208-.322-.801-23.016.603-23.016.603z"/>
        <path fill="#000" fill-rule="nonzero" d="M242.545 177.85l-1.148-.603s-.537 2.113-.362 3.62c.036.313.274.571.598.648 2.642.618 15.231 3.254 23.888-.458.256-.11.43-.339.46-.602.107-.926-.27-2.836-.42-3.208-.322-.801-23.016.603-23.016.603z" opacity=".1"/>
        <ellipse cx="253" cy="177.5" fill="#FBD56F" fill-rule="nonzero" rx="12" ry="2.5"/>
        <path fill="#000" fill-rule="nonzero" d="M270 179s-5.232 2.347-5.946 2.934C263.339 182.521 270 179 270 179z" opacity=".1"/>
        <ellipse cx="216" cy="213" fill="#FBD56F" fill-rule="nonzero" rx="11" ry="12"/>
        <ellipse cx="216" cy="213" fill="#000" fill-rule="nonzero" opacity=".1" rx="11" ry="12"/>
        <ellipse cx="218" cy="213.5" fill="#FBD56F" fill-rule="nonzero" rx="11" ry="11.5"/>
        <ellipse cx="26.5" cy="217.5" fill="#1F80FF" fill-rule="nonzero" rx="13.5" ry="2.5"/>
        <path fill="#1F80FF" fill-rule="nonzero" d="M32.653 212.98c.586-.517 1.135-1.126 1.304-1.868.169-.742-.164-1.631-.91-1.902-.837-.304-1.731.247-2.41.803-.677.555-1.454 1.19-2.34 1.072.927-.798 1.346-2 1.102-3.167-.04-.237-.145-.46-.307-.643-.464-.472-1.306-.27-1.862.102-1.768 1.181-2.262 3.461-2.271 5.514-.179-.74-.029-1.512-.033-2.272-.004-.759-.224-1.6-.898-2.009-.42-.215-.893-.32-1.37-.305-.795-.028-1.68.047-2.224.6-.674.685-.5 1.836.088 2.59.586.756 1.479 1.229 2.3 1.75.66.373 1.222.882 1.645 1.489.05.085.09.174.122.266h4.983c1.118-.538 2.155-1.218 3.081-2.02zM181.718 202.109c.619.852 1.124 1.78 1.504 2.763.1.255.199.522.292.802 1.495 4.495-.874 9.886-1.55 9.305-.678-.582-2.788-1.66-3.196-.144-.408 1.516-1.915 3.066-1.915 3.066-2.746 2.779-5.232-.224-6.863-3.327-.533-1.024-1.007-2.077-1.42-3.156-.362-.953-.57-1.611-.57-1.611L179.437 200s1.106.51 2.281 2.109zM163.718 208.109c.619.852 1.124 1.78 1.504 2.763.1.255.199.522.292.802 1.495 4.495-.874 9.886-1.55 9.305-.678-.582-2.788-1.66-3.196-.144-.408 1.516-1.915 3.066-1.915 3.066-2.746 2.779-5.232-.224-6.863-3.327-.533-1.023-1.007-2.077-1.42-3.156-.362-.953-.57-1.611-.57-1.611L161.437 206s1.106.51 2.281 2.109zM127.986 217.014c-.064 1.027-.26 2.041-.585 3.018-.082.253-.174.516-.278.784-1.67 4.314-6.818 6.88-6.968 6.018-.15-.86-1.073-2.994-2.326-2.11-1.253.883-3.357 1.103-3.357 1.103-3.807.367-3.816-3.447-3.118-6.8.235-1.103.533-2.191.893-3.26.32-.942.572-1.568.572-1.568l14.755-.199s.518 1.077.412 3.014zM108.986 212.014c-.064 1.027-.26 2.041-.585 3.018-.082.253-.174.516-.278.784-1.67 4.314-6.818 6.88-6.968 6.018-.15-.86-1.073-2.994-2.326-2.11-1.253.883-3.357 1.103-3.357 1.103-3.807.367-3.816-3.447-3.118-6.8.235-1.103.533-2.191.893-3.26.32-.942.572-1.568.572-1.568l14.755-.199s.518 1.077.412 3.014z"/>
        <path fill="#000" fill-rule="nonzero" d="M181.718 202.109c.619.852 1.124 1.78 1.504 2.763.1.255.199.522.292.802 1.495 4.495-.874 9.886-1.55 9.305-.678-.582-2.788-1.66-3.196-.144-.408 1.516-1.915 3.066-1.915 3.066-2.746 2.779-5.232-.224-6.863-3.327-.533-1.024-1.007-2.077-1.42-3.156-.362-.953-.57-1.611-.57-1.611L179.437 200s1.106.51 2.281 2.109zM163.718 208.109c.619.852 1.124 1.78 1.504 2.763.1.255.199.522.292.802 1.495 4.495-.874 9.886-1.55 9.305-.678-.582-2.788-1.66-3.196-.144-.408 1.516-1.915 3.066-1.915 3.066-2.746 2.779-5.232-.224-6.863-3.327-.533-1.023-1.007-2.077-1.42-3.156-.362-.953-.57-1.611-.57-1.611L161.437 206s1.106.51 2.281 2.109zM127.986 217.014c-.064 1.027-.26 2.041-.585 3.018-.082.253-.174.516-.278.784-1.67 4.314-6.818 6.88-6.968 6.018-.15-.86-1.073-2.994-2.326-2.11-1.253.883-3.357 1.103-3.357 1.103-3.807.367-3.816-3.447-3.118-6.8.235-1.103.533-2.191.893-3.26.32-.942.572-1.568.572-1.568l14.755-.199s.518 1.077.412 3.014zM108.986 212.014c-.064 1.027-.26 2.041-.585 3.018-.082.253-.174.516-.278.784-1.67 4.314-6.818 6.88-6.968 6.018-.15-.86-1.073-2.994-2.326-2.11-1.253.883-3.357 1.103-3.357 1.103-3.807.367-3.816-3.447-3.118-6.8.235-1.103.533-2.191.893-3.26.32-.942.572-1.568.572-1.568l14.755-.199s.518 1.077.412 3.014z" opacity=".2"/>
        <path fill="#1F80FF" fill-rule="nonzero" d="M211 146.5c0 39.488-13.356 71.5-74.99 71.5-41.415 0-73.457-10.292-74.99-71.5-.988-39.476 33.575-71.5 74.99-71.5 41.416 0 74.99 32.012 74.99 71.5z"/>
        <path fill="#000" fill-rule="nonzero" d="M121.996 75.999h.008l-.006.002-.002-.002zM122.086 76.053c.156-.031.465-.084.914-.125l-1 .144.054-.013.032-.006zM178 105.046L172.555 107c-2.775-3.71-5.762-7.26-8.944-10.629-3.474-3.693-7.264-7.078-11.327-10.115C138.344 75.957 127.56 75.695 124 75.96l8.184-.96c7.736 1.327 15.174 4.007 21.973 7.918 4.756 2.733 9.186 5.995 13.204 9.723C174.487 99.234 178 105.046 178 105.046z" opacity=".2"/>
        <path fill="#000" fill-rule="nonzero" d="M128.502 109s-7.104-24.18-1.076-30.776c0 0 9.47-3.297 16.574 15.388L128.502 109z" opacity=".2"/>
        <path fill="#1F80FF" fill-rule="nonzero" d="M165 86.694s18.96-16.315 27.348-13.33c0 0 6.802 7.522-7.197 21.636L165 86.694z"/>
        <path fill="#000" fill-rule="nonzero" d="M165 86.694s18.96-16.315 27.348-13.33c0 0 6.802 7.522-7.197 21.636L165 86.694z" opacity=".2"/>
        <path fill="#1F80FF" fill-rule="nonzero" d="M225 164.754C225 186.12 209.74 203 195.38 203c-14.36 0-22.38-16.88-22.38-38.246 0-21.367 11.665-37.853 26-38.688 22.709-1.322 26 17.321 26 38.688z"/>
        <path fill="#000" fill-rule="nonzero" d="M225 164.754C225 186.12 209.74 203 195.38 203c-14.36 0-22.38-16.88-22.38-38.246 0-21.367 11.665-37.853 26-38.688 22.709-1.322 26 17.321 26 38.688z" opacity=".2"/>
        <ellipse cx="194" cy="168" fill="#1F80FF" fill-rule="nonzero" rx="5" ry="6"/>
        <ellipse cx="212" cy="163" fill="#1F80FF" fill-rule="nonzero" rx="5" ry="6"/>
        <path fill="#FAD46F" fill-rule="nonzero" d="M168 89.403c.003 1.352-.315 2.686-.93 3.893-.81 1.605-2.126 2.905-3.748 3.704-3.472-3.667-7.26-7.028-11.322-10.044.362-1.231 1.002-2.365 1.872-3.315 1.517-1.675 3.68-2.635 5.952-2.641 4.514 0 8.176 3.762 8.176 8.403z"/>
    </g>
</svg>
