<svg width="698" height="750" viewBox="0 0 698 750" fill="none" xmlns="http://www.w3.org/2000/svg">
<path opacity="0.1" d="M348.83 749.76C541.484 749.76 697.66 741.307 697.66 730.88C697.66 720.453 541.484 712 348.83 712C156.177 712 0 720.453 0 730.88C0 741.307 156.177 749.76 348.83 749.76Z" fill="#CC6600"/>
<path d="M615.58 673.63H565.38V733H615.58V673.63Z" fill="url(#paint0_linear)"/>
<path d="M566.55 730.83H614.42V673.62H566.55V730.83Z" fill="#C1C1C1"/>
<path d="M124.08 673.63H73.88V733H124.08V673.63Z" fill="url(#paint1_linear)"/>
<path d="M122.92 673.63H75.05V730.84H122.92V673.63Z" fill="#C1C1C1"/>
<path d="M668.44 0H19.86C11.653 0 5 6.65305 5 14.86V666.94C5 675.147 11.653 681.8 19.86 681.8H668.44C676.647 681.8 683.3 675.147 683.3 666.94V14.86C683.3 6.65305 676.647 0 668.44 0Z" fill="url(#paint2_linear)"/>
<path d="M664.93 3.5H24.53C16.323 3.5 9.67 10.153 9.67 18.36V658.76C9.67 666.967 16.323 673.62 24.53 673.62H664.93C673.137 673.62 679.79 666.967 679.79 658.76V18.36C679.79 10.153 673.137 3.5 664.93 3.5Z" fill="#C1C1C1"/>
<path d="M570.64 111.49H117.66V569.14H570.64V111.49Z" fill="url(#paint3_linear)"/>
<path d="M613.995 227.562L468.432 266.185L487.295 337.275L632.858 298.652L613.995 227.562Z" fill="url(#paint4_linear)"/>
<path d="M613.165 228.993L469.853 267.018L488.118 335.856L631.43 297.831L613.165 228.993Z" fill="white"/>
<path d="M609.074 232.489L475.158 268.021L492.225 332.345L626.142 296.813L609.074 232.489Z" fill="#7A121C"/>
<path d="M553.516 295.553C567.224 291.916 576.728 282.905 574.744 275.426C572.759 267.947 560.038 264.833 546.33 268.471C532.621 272.108 523.117 281.119 525.102 288.598C527.086 296.077 539.807 299.191 553.516 295.553Z" fill="white"/>
<path d="M488.367 331.102L464.47 400.662L606.899 449.593L630.796 380.033L488.367 331.102Z" fill="url(#paint5_linear)"/>
<path d="M629.315 380.752L489.089 332.578L465.95 399.934L606.175 448.108L629.315 380.752Z" fill="white"/>
<path d="M623.968 381.389L492.935 336.373L471.312 399.313L602.345 444.329L623.968 381.389Z" fill="#7A121C"/>
<path d="M571.565 397.947C574.079 390.629 565.243 380.961 551.83 376.353C538.417 371.745 525.505 373.942 522.991 381.259C520.477 388.577 529.313 398.245 542.726 402.853C556.139 407.461 569.051 405.264 571.565 397.947Z" fill="white"/>
<path d="M645.78 302.71H495.18V376.26H645.78V302.71Z" fill="url(#paint6_linear)"/>
<path d="M644.62 303.88H496.35V375.1H644.62V303.88Z" fill="white"/>
<path d="M639.76 306.21H501.21V372.76H639.76V306.21Z" fill="#7A121C"/>
<path d="M569.9 352.91C584.083 352.91 595.58 346.638 595.58 338.9C595.58 331.162 584.083 324.89 569.9 324.89C555.717 324.89 544.22 331.162 544.22 338.9C544.22 346.638 555.717 352.91 569.9 352.91Z" fill="white"/>
<path d="M567.13 116.16H121.16V562.13H567.13V116.16Z" fill="#F3F3F3"/>
<path d="M344.15 423.21C390.575 423.21 428.21 385.575 428.21 339.15C428.21 292.725 390.575 255.09 344.15 255.09C297.725 255.09 260.09 292.725 260.09 339.15C260.09 385.575 297.725 423.21 344.15 423.21Z" fill="url(#paint7_linear)"/>
<path d="M344.15 419.71C388.642 419.71 424.71 383.642 424.71 339.15C424.71 294.658 388.642 258.59 344.15 258.59C299.658 258.59 263.59 294.658 263.59 339.15C263.59 383.642 299.658 419.71 344.15 419.71Z" fill="#FAFAFA"/>
<path d="M307.38 499.67H282.86V525.35H307.38V499.67Z" fill="url(#paint8_linear)"/>
<path d="M340.07 499.67H315.55V525.35H340.07V499.67Z" fill="url(#paint9_linear)"/>
<path d="M372.75 499.67H348.23V525.35H372.75V499.67Z" fill="url(#paint10_linear)"/>
<path d="M405.44 499.67H380.92V525.35H405.44V499.67Z" fill="url(#paint11_linear)"/>
<path d="M306.79 500.84H283.44V524.19H306.79V500.84Z" fill="#CC6600"/>
<path opacity="0.7" d="M339.48 500.84H316.13V524.19H339.48V500.84Z" fill="#CC6600"/>
<path opacity="0.5" d="M372.17 500.84H348.82V524.19H372.17V500.84Z" fill="#CC6600"/>
<path opacity="0.3" d="M404.86 500.84H381.51V524.19H404.86V500.84Z" fill="#CC6600"/>
<path d="M381.697 290.615L377.871 287.937L368.499 301.321L372.325 304L381.697 290.615Z" fill="#CC6600"/>
<path d="M392.684 376.692L395.363 372.866L381.978 363.494L379.299 367.319L392.684 376.692Z" fill="#CC6600"/>
<path d="M306.599 387.68L310.424 390.358L319.796 376.973L315.971 374.295L306.599 387.68Z" fill="#CC6600"/>
<path d="M295.62 301.604L292.941 305.429L306.326 314.801L309.005 310.976L295.62 301.604Z" fill="#CC6600"/>
<path opacity="0.2" d="M381.654 290.478L377.829 287.799L368.457 301.184L372.282 303.863L381.654 290.478Z" fill="black"/>
<path opacity="0.2" d="M392.646 376.557L395.325 372.732L381.94 363.36L379.261 367.185L392.646 376.557Z" fill="black"/>
<path opacity="0.2" d="M306.567 387.539L310.392 390.218L319.765 376.833L315.939 374.154L306.567 387.539Z" fill="black"/>
<path opacity="0.2" d="M295.582 301.466L292.904 305.291L306.289 314.664L308.967 310.838L295.582 301.466Z" fill="black"/>
<path d="M344.15 389.93C372.195 389.93 394.93 367.195 394.93 339.15C394.93 311.105 372.195 288.37 344.15 288.37C316.105 288.37 293.37 311.105 293.37 339.15C293.37 367.195 316.105 389.93 344.15 389.93Z" fill="url(#paint12_linear)"/>
<path d="M344.15 387.02C370.588 387.02 392.02 365.588 392.02 339.15C392.02 312.712 370.588 291.28 344.15 291.28C317.712 291.28 296.28 312.712 296.28 339.15C296.28 365.588 317.712 387.02 344.15 387.02Z" fill="#CC6600"/>
<path opacity="0.2" d="M305.04 345.57C305.031 337.176 307.229 328.927 311.415 321.651C315.601 314.376 321.626 308.328 328.887 304.117C336.148 299.905 344.389 297.678 352.783 297.657C361.177 297.637 369.429 299.824 376.71 304C371.825 299.299 365.997 295.689 359.612 293.41C353.227 291.131 346.43 290.234 339.673 290.78C332.915 291.325 326.35 293.3 320.413 296.574C314.476 299.847 309.302 304.345 305.235 309.769C301.167 315.192 298.298 321.418 296.817 328.034C295.337 334.651 295.279 341.506 296.648 348.146C298.017 354.786 300.78 361.059 304.756 366.551C308.732 372.043 313.829 376.627 319.71 380C315.07 375.546 311.379 370.2 308.858 364.283C306.337 358.367 305.038 352.001 305.04 345.57V345.57Z" fill="white"/>
<path d="M140.43 296.54H103.07V203.26C103.073 202.299 103.456 201.378 104.137 200.7C104.817 200.021 105.739 199.64 106.7 199.64H136.81C137.773 199.64 138.696 200.022 139.377 200.703C140.058 201.384 140.44 202.307 140.44 203.27L140.43 296.54Z" fill="url(#paint13_linear)"/>
<path d="M136.62 479.83H106.88C105.87 479.83 104.9 479.429 104.186 478.714C103.471 477.999 103.07 477.03 103.07 476.02V382.93H140.43V476C140.433 476.502 140.336 477 140.146 477.464C139.955 477.929 139.675 478.351 139.321 478.707C138.967 479.063 138.546 479.345 138.083 479.538C137.619 479.731 137.122 479.83 136.62 479.83V479.83Z" fill="url(#paint14_linear)"/>
<path d="M107.4 200.8H136.09C136.931 200.8 137.737 201.134 138.332 201.729C138.926 202.323 139.26 203.129 139.26 203.97V294.2H104.26V204C104.256 203.584 104.334 203.171 104.49 202.785C104.645 202.399 104.876 202.047 105.167 201.75C105.459 201.453 105.806 201.216 106.189 201.053C106.572 200.89 106.984 200.804 107.4 200.8V200.8Z" fill="#AEAEAE"/>
<path d="M104.23 384.1H139.23V476.43C139.23 476.711 139.118 476.981 138.92 477.18C138.721 477.378 138.451 477.49 138.17 477.49H105.3C105.019 477.49 104.749 477.378 104.55 477.18C104.352 476.981 104.24 476.711 104.24 476.43V384.1H104.23Z" fill="#AEAEAE"/>
<defs>
<linearGradient id="paint0_linear" x1="590.48" y1="733" x2="590.48" y2="673.63" gradientUnits="userSpaceOnUse">
<stop stop-color="#808080" stop-opacity="0.25"/>
<stop offset="0.54" stop-color="#808080" stop-opacity="0.12"/>
<stop offset="1" stop-color="#808080" stop-opacity="0.1"/>
</linearGradient>
<linearGradient id="paint1_linear" x1="4791.68" y1="673.63" x2="4791.68" y2="40667" gradientUnits="userSpaceOnUse">
<stop stop-color="#808080" stop-opacity="0.25"/>
<stop offset="0.54" stop-color="#808080" stop-opacity="0.12"/>
<stop offset="1" stop-color="#808080" stop-opacity="0.1"/>
</linearGradient>
<linearGradient id="paint2_linear" x1="230050" y1="464851" x2="230050" y2="0" gradientUnits="userSpaceOnUse">
<stop stop-color="#808080" stop-opacity="0.25"/>
<stop offset="0.54" stop-color="#808080" stop-opacity="0.12"/>
<stop offset="1" stop-color="#808080" stop-opacity="0.1"/>
</linearGradient>
<linearGradient id="paint3_linear" x1="153746" y1="260578" x2="153746" y2="51134.9" gradientUnits="userSpaceOnUse">
<stop stop-color="#808080" stop-opacity="0.25"/>
<stop offset="0.54" stop-color="#808080" stop-opacity="0.12"/>
<stop offset="1" stop-color="#808080" stop-opacity="0.1"/>
</linearGradient>
<linearGradient id="paint4_linear" x1="125993" y1="-512.29" x2="124606" y2="-5740.97" gradientUnits="userSpaceOnUse">
<stop stop-color="#808080" stop-opacity="0.25"/>
<stop offset="0.54" stop-color="#808080" stop-opacity="0.12"/>
<stop offset="1" stop-color="#808080" stop-opacity="0.1"/>
</linearGradient>
<linearGradient id="paint5_linear" x1="30252.4" y1="90653.3" x2="33851.3" y2="80177.7" gradientUnits="userSpaceOnUse">
<stop stop-color="#808080" stop-opacity="0.25"/>
<stop offset="0.54" stop-color="#808080" stop-opacity="0.12"/>
<stop offset="1" stop-color="#808080" stop-opacity="0.1"/>
</linearGradient>
<linearGradient id="paint6_linear" x1="85656.5" y1="27976.6" x2="85656.5" y2="22567" gradientUnits="userSpaceOnUse">
<stop stop-color="#808080" stop-opacity="0.25"/>
<stop offset="0.54" stop-color="#808080" stop-opacity="0.12"/>
<stop offset="1" stop-color="#808080" stop-opacity="0.1"/>
</linearGradient>
<linearGradient id="paint7_linear" x1="57278" y1="71405.1" x2="57278" y2="43140.8" gradientUnits="userSpaceOnUse">
<stop stop-color="#808080" stop-opacity="0.25"/>
<stop offset="0.54" stop-color="#808080" stop-opacity="0.12"/>
<stop offset="1" stop-color="#808080" stop-opacity="0.1"/>
</linearGradient>
<linearGradient id="paint8_linear" x1="7396.36" y1="13990.9" x2="7396.36" y2="13331.2" gradientUnits="userSpaceOnUse">
<stop stop-color="#808080" stop-opacity="0.25"/>
<stop offset="0.54" stop-color="#808080" stop-opacity="0.12"/>
<stop offset="1" stop-color="#808080" stop-opacity="0.1"/>
</linearGradient>
<linearGradient id="paint9_linear" x1="8230.61" y1="13990.9" x2="8230.61" y2="13331.2" gradientUnits="userSpaceOnUse">
<stop stop-color="#808080" stop-opacity="0.25"/>
<stop offset="0.54" stop-color="#808080" stop-opacity="0.12"/>
<stop offset="1" stop-color="#808080" stop-opacity="0.1"/>
</linearGradient>
<linearGradient id="paint10_linear" x1="9064.84" y1="13990.9" x2="9064.84" y2="13331.2" gradientUnits="userSpaceOnUse">
<stop stop-color="#808080" stop-opacity="0.25"/>
<stop offset="0.54" stop-color="#808080" stop-opacity="0.12"/>
<stop offset="1" stop-color="#808080" stop-opacity="0.1"/>
</linearGradient>
<linearGradient id="paint11_linear" x1="9899.09" y1="13990.9" x2="9899.09" y2="13331.2" gradientUnits="userSpaceOnUse">
<stop stop-color="#808080" stop-opacity="0.25"/>
<stop offset="0.54" stop-color="#808080" stop-opacity="0.12"/>
<stop offset="1" stop-color="#808080" stop-opacity="0.1"/>
</linearGradient>
<linearGradient id="paint12_linear" x1="34737.4" y1="39889.7" x2="34737.4" y2="29574.2" gradientUnits="userSpaceOnUse">
<stop stop-color="#808080" stop-opacity="0.25"/>
<stop offset="0.54" stop-color="#808080" stop-opacity="0.12"/>
<stop offset="1" stop-color="#808080" stop-opacity="0.1"/>
</linearGradient>
<linearGradient id="paint13_linear" x1="14214" y1="37074" x2="14214" y2="27684.4" gradientUnits="userSpaceOnUse">
<stop stop-color="#808080" stop-opacity="0.25"/>
<stop offset="0.54" stop-color="#808080" stop-opacity="0.12"/>
<stop offset="1" stop-color="#808080" stop-opacity="0.1"/>
</linearGradient>
<linearGradient id="paint14_linear" x1="14210.2" y1="55018.1" x2="14210.2" y2="45628.5" gradientUnits="userSpaceOnUse">
<stop stop-color="#808080" stop-opacity="0.25"/>
<stop offset="0.54" stop-color="#808080" stop-opacity="0.12"/>
<stop offset="1" stop-color="#808080" stop-opacity="0.1"/>
</linearGradient>
</defs>
</svg>
