<svg xmlns="http://www.w3.org/2000/svg" width="330" height="203" viewBox="0 0 330 203">
    <defs>
        <linearGradient id="prefix__a" x1=".057%" x2="100%" y1="50.007%" y2="50.007%">
            <stop offset="0%" stop-color="gray" stop-opacity=".25"/>
            <stop offset="54%" stop-color="gray" stop-opacity=".12"/>
            <stop offset="100%" stop-color="gray" stop-opacity=".1"/>
        </linearGradient>
    </defs>
    <g fill="none">
        <path fill="#FFCB05" d="M330 130.385c.006 5.5-.66 10.981-1.98 16.32-.445 1.798-.962 3.56-1.55 5.286-.721 2.128-1.555 4.216-2.5 6.254-.476 1.03-.98 2.04-1.51 3.032.009 5.64-1.152 11.222-3.41 16.39-4.081 9.273-11.357 16.772-20.502 21.13-5.726 2.731-11.983 4.166-18.327 4.203H62.65c-9.681.021-19.195-2.521-27.575-7.37-1.238-.717-2.445-1.481-3.62-2.292-2.55-1.763-4.947-3.739-7.164-5.907-3-2.936-5.644-6.216-7.876-9.772-5.242-8.326-8.02-17.967-8.01-27.806C3.095 140.535 0 129.373 0 117.38c0-15.132 4.92-28.936 13.003-39.385 1.685-2.183 3.53-4.237 5.522-6.145 1.965-1.889 4.076-3.617 6.315-5.17 1.79-1.246 3.663-2.37 5.604-3.363.81-.415 1.622-.802 2.448-1.163.726-.322 1.46-.622 2.203-.905.89-.34 1.793-.651 2.706-.934.913-.282 1.815-.53 2.704-.745 1.307-.32 2.637-.579 3.99-.779 1.12-.165 2.24-.28 3.361-.37.891-.063 1.79-.1 2.696-.112h.49c.997 0 1.99.04 2.973.107.103-.208.215-.418.32-.625.391-.746.798-1.491 1.207-2.222v-.02c.07-.126.14-.252.213-.376.33-.596.675-1.188 1.028-1.773.162-.28.322-.544.487-.81.037-.065.073-.126.115-.19.168-.281.34-.561.513-.842.865-1.38 1.764-2.74 2.698-4.077.081-.115.157-.227.238-.339.146-.207.28-.412.443-.616.386-.541.784-1.085 1.185-1.62.28-.378.56-.757.863-1.12.728-.942 1.476-1.878 2.241-2.803.765-.925 1.572-1.855 2.387-2.766.112-.126.225-.25.342-.375l1.197-1.304c.058-.061.109-.117.165-.173.143-.154.28-.308.434-.46.642-.678 1.3-1.348 1.961-2.009 3.378-3.356 6.976-6.483 10.77-9.36.149-.117.3-.23.448-.341.712-.538 1.435-1.068 2.158-1.59 3.976-2.851 8.133-5.444 12.442-7.761.297-.169.6-.328.905-.488 3.865-2.044 7.84-3.873 11.905-5.481 2.215-.876 4.47-1.695 6.763-2.455 1.519-.496 3.043-.97 4.587-1.401 2.387-.686 4.804-1.304 7.25-1.855 7.21-1.618 14.543-2.617 21.921-2.987 2.242-.118 4.508-.177 6.8-.177 11.059-.015 22.074 1.38 32.78 4.147.226.34.61.54 1.018.53h.941c.409.11.815.224 1.224.342 2.285.66 4.536 1.378 6.755 2.155l.56.202c5.477 1.947 10.806 4.289 15.945 7.005 4.632 2.444 9.093 5.2 13.35 8.25.656.47 1.303.946 1.94 1.426.773-.498 1.56-.974 2.359-1.426 3.087-1.758 6.366-3.155 9.772-4.164 7.121-2.108 14.657-2.403 21.92-.858 9.317 1.976 17.75 6.88 24.56 13.855 2.775 2.844 5.247 5.97 7.375 9.325.154.241.308.485.457.732 1.825 2.98 3.394 6.11 4.69 9.357.047.117.095.232.137.35 1.196 3.038 2.16 6.162 2.886 9.345.034.16.073.323.106.485.678 3.08 1.14 6.206 1.379 9.351 0 .112 0 .227.022.342.118 1.627.178 3.272.18 4.935 0 1.485-.05 2.959-.143 4.419 0 .16-.023.328-.037.49-.025.426-.061.841-.098 1.27 2.14 1.725 4.143 3.614 5.99 5.649.817.891 1.607 1.817 2.37 2.777 2.328 2.916 4.373 6.048 6.108 9.351 4.73 8.962 7.453 19.481 7.453 30.743z" opacity=".1"/>
        <path fill="#FFCB05" d="M299 185.576c0 6.355-6.592 12.302-18.094 17.424H63.634c-10.053 0-19.468-3.635-27.537-9.973-2.028-2.404-3.097-4.895-3.097-7.454 0-6.754 7.454-13.059 20.34-18.388l.364-.145c3.638-1.49 7.703-2.897 12.146-4.22.112-.033.227-.063.338-.103 3.526-1.034 7.276-2.014 11.25-2.94.127-.029.25-.06.376-.082 1.533-.363 3.097-.702 4.694-1.04l.616-.129c11.625-2.41 24.84-4.322 39.17-5.62h.017c2.007-.186 4.036-.352 6.085-.5 2.28-.181 4.589-.335 6.922-.478 1.783-.114 3.587-.212 5.398-.302.013-.005.028-.005.042 0 8.167-.41 16.605-.626 25.234-.626 21.336 0 41.503 1.308 59.373 3.635.017-.003.034-.003.05 0 2.748.357 5.445.735 8.075 1.138.753.117 1.503.234 2.239.355 2.967.479 5.859.985 8.673 1.518 33.1 6.288 54.598 16.462 54.598 27.93z" opacity=".1"/>
        <path fill="#33323D" d="M111 63H218V117H111zM77 133H252V169H77z"/>
        <path fill="#FFF" d="M119.831 143L209.195 143 227 203 101 203z"/>
        <path fill="#504F60" d="M73 113L73 131.219 73 135.055 73 169 106.527 169 106.527 136.616 224.473 136.616 224.473 169 258 169 258 135.055 258 131.219 258 113z"/>
        <path fill="#33323D" d="M73 113H258V131H73z" opacity=".1"/>
        <circle cx="246.5" cy="122.5" r="2.5" fill="#8CCF4D" opacity=".8"/>
        <circle cx="235.5" cy="122.5" r="2.5" fill="#FA5959" opacity=".8"/>
        <path fill="#FFF" d="M115 50H215V109H115z"/>
        <circle cx="63" cy="91" r="1" fill="#E6E8EC"/>
        <path fill="#000" d="M93.324 71.938c0 .022 0 .04-.015.062-.023.08-.053.158-.087.234.027-.101.061-.2.102-.296z" opacity=".1"/>
        <path fill="url(#prefix__a)" d="M163.618 171.738c-4.382-1.754-5.67-3.02-5.67-5.558 0-1.945.885-4.19 4.765-4.19 2.144-.031 4.25.549 6.057 1.667l1.262-3.227c-1.463-.833-3.526-1.609-6.55-1.706V154h-2.548v4.919c-4.635.73-7.32 3.799-7.32 7.842 0 4.238 2.587 6.48 7.737 8.428 3.73 1.47 5.68 3.127 5.68 5.806 0 2.779-2.416 4.774-5.994 4.774-2.819 0-6.014-.926-7.827-2.096l-1.21 3.263c1.764 1.22 4.787 2.095 7.707 2.145V194h4.336v-5.066c5.173-.834 7.957-4.446 7.957-8.281 0-4.335-3.193-6.87-8.382-8.915z"/>
        <path fill="#FFCB05" d="M159.716 193v-4.92c-2.923-.05-5.95-.925-7.716-2.146l1.211-3.263c1.815 1.17 5.015 2.096 7.837 2.096 3.581 0 5.99-1.996 5.99-4.775 0-2.68-1.966-4.336-5.7-5.798-5.144-1.946-7.744-4.192-7.744-8.43 0-4.045 2.687-7.113 7.327-7.844V153h2.552v4.725c3.026.097 5.092.876 6.556 1.707l-1.263 3.213c-1.808-1.118-3.917-1.698-6.064-1.668-3.884 0-4.77 2.243-4.77 4.192 0 2.532 1.289 3.8 5.676 5.559 5.196 2.045 8.392 4.58 8.392 8.916 0 3.85-2.773 7.455-7.966 8.283V193h-4.318z"/>
    </g>
</svg>
