<svg xmlns="http://www.w3.org/2000/svg" width="330" height="212" viewBox="0 0 330 212">
    <defs>
        <linearGradient id="prefix__a" x1="50%" x2="50%" y1="99.998%" y2="-.006%">
            <stop offset="0%" stop-color="gray" stop-opacity=".25"/>
            <stop offset="54%" stop-color="gray" stop-opacity=".12"/>
            <stop offset="100%" stop-color="gray" stop-opacity=".1"/>
        </linearGradient>
        <linearGradient id="prefix__b" x1="66.867%" x2="33.102%" y1="101.853%" y2="-1.875%">
            <stop offset="0%" stop-color="gray" stop-opacity=".25"/>
            <stop offset="54%" stop-color="gray" stop-opacity=".12"/>
            <stop offset="100%" stop-color="gray" stop-opacity=".1"/>
        </linearGradient>
        <linearGradient id="prefix__c" x1="49.963%" x2="49.963%" y1="99.963%" y2="0%">
            <stop offset="0%" stop-color="gray" stop-opacity=".25"/>
            <stop offset="54%" stop-color="gray" stop-opacity=".12"/>
            <stop offset="100%" stop-color="gray" stop-opacity=".1"/>
        </linearGradient>
        <linearGradient id="prefix__d" x1="50%" x2="50%" y1="100%" y2="0%">
            <stop offset="0%" stop-color="gray" stop-opacity=".25"/>
            <stop offset="54%" stop-color="gray" stop-opacity=".12"/>
            <stop offset="100%" stop-color="gray" stop-opacity=".1"/>
        </linearGradient>
        <linearGradient id="prefix__e" x1="50%" x2="50%" y1="100%" y2="0%">
            <stop offset="0%" stop-color="gray" stop-opacity=".25"/>
            <stop offset="54%" stop-color="gray" stop-opacity=".12"/>
            <stop offset="100%" stop-color="gray" stop-opacity=".1"/>
        </linearGradient>
        <linearGradient id="prefix__f" x1="49.992%" x2="49.992%" y1="100.124%" y2="-.001%">
            <stop offset="0%" stop-color="gray" stop-opacity=".25"/>
            <stop offset="54%" stop-color="gray" stop-opacity=".12"/>
            <stop offset="100%" stop-color="gray" stop-opacity=".1"/>
        </linearGradient>
        <linearGradient id="prefix__g" x1="50.003%" x2="50.003%" y1="99.989%" y2="0%">
            <stop offset="0%" stop-color="gray" stop-opacity=".25"/>
            <stop offset="54%" stop-color="gray" stop-opacity=".12"/>
            <stop offset="100%" stop-color="gray" stop-opacity=".1"/>
        </linearGradient>
        <linearGradient id="prefix__h" x1="50.099%" x2="50.099%" y1="100%" y2="0%">
            <stop offset="0%" stop-color="#FFF"/>
            <stop offset="100%"/>
        </linearGradient>
        <linearGradient id="prefix__i" x1="50.001%" x2="50.001%" y1="100.004%" y2=".001%">
            <stop offset="0%" stop-color="gray" stop-opacity=".25"/>
            <stop offset="54%" stop-color="gray" stop-opacity=".12"/>
            <stop offset="100%" stop-color="gray" stop-opacity=".1"/>
        </linearGradient>
    </defs>
    <g fill="none">
        <path fill="url(#prefix__a)" d="M312.595 35.538h-45.193V18.274c0-9.988-8.11-18.084-18.113-18.084H42.366c-9.075 0-16.432 7.345-16.432 16.406v18.953H19.13C8.575 35.545.013 44.079 0 54.617v85.594c.008 9.983 7.72 18.275 17.69 19.02v19.361h19.318V159.29h24.324v19.465H80.65V159.29h173.846v19.465h19.317V159.29h16.098v19.285h19.337V159.29h3.48c4.581 0 8.975-1.816 12.214-5.049 3.24-3.233 5.059-7.62 5.059-12.192v-89.13c0-4.61-1.832-9.03-5.097-12.29-3.264-3.26-7.691-5.09-12.308-5.09zM264 111.075v14.463h-72.015c.78-1.394 1.189-2.965 1.187-4.562v-9.9H264z" opacity=".5" transform="translate(0 31)"/>
        <path fill="#1F80FF" d="M23 183H42V206H23zM251 183H270V206H251zM285 183H304V206H285zM65 183H84V206H65z"/>
        <path fill="#000" d="M23 183H42V206H23zM251 183H270V206H251zM285 183H304V206H285zM65 183H84V206H65z" opacity=".3"/>
        <path fill="#1F80FF" d="M260 69h47.123C316.443 69 324 76.544 324 85.85v86.434c0 9.232-7.496 16.716-16.743 16.716H260V69z"/>
        <path fill="#000" d="M260 69h47.123C316.443 69 324 76.544 324 85.85v86.434c0 9.232-7.496 16.716-16.743 16.716H260V69z" opacity=".3"/>
        <path fill="#1F80FF" d="M46.913 35H137v107H31V50.827C31.002 42.085 38.126 35 46.913 35z"/>
        <path fill="#000" d="M47.426 35H137v107H31V51.337c0-4.333 1.73-8.49 4.811-11.553C38.891 36.72 43.07 35 47.426 35z" opacity=".3"/>
        <path fill="#1F80FF" d="M71.653 35H159v107H53V53.553C53 43.307 61.35 35 71.65 35h.003z"/>
        <path fill="#1F80FF" d="M157 35h88.571C255.197 35 263 42.813 263 52.45V142H157V35zM290 69h17.3c9.225.006 16.7 7.548 16.7 16.85v86.434c0 9.232-7.422 16.716-16.578 16.716H290V69zM76 155H290V188H76z"/>
        <path fill="url(#prefix__b)" d="M122.626 74.722c17.444.006 31.583 14.146 31.59 31.59l.001 3.243c.007 17.426-14.115 31.559-31.541 31.565h-.024c-17.444-.006-31.584-14.146-31.59-31.59l-.002-3.243c-.006-17.426 14.115-31.559 31.542-31.565h.024z" transform="rotate(-16.25 122.639 107.921)"/>
        <path fill="#F55F44" d="M112.838 78.99c15.618-4.545 31.966 4.423 36.524 20.038l.847 2.903c4.554 15.6-4.401 31.937-20 36.49l-.022.007c-15.619 4.545-31.967-4.423-36.525-20.038l-.847-2.903c-4.553-15.6 4.401-31.937 20-36.49l.023-.006z"/>
        <path fill="#000" d="M112.838 78.99c15.618-4.545 31.966 4.423 36.524 20.038l.847 2.903c4.554 15.6-4.401 31.937-20 36.49l-.022.007c-15.619 4.545-31.967-4.423-36.525-20.038l-.847-2.903c-4.553-15.6 4.401-31.937 20-36.49l.023-.006z" opacity=".1"/>
        <path fill="#F55F44" d="M113.962 78.201c15.619-4.546 31.967 4.423 36.525 20.038l.847 2.903c4.553 15.6-4.401 31.937-20 36.49l-.023.006c-15.618 4.546-31.966-4.423-36.524-20.038l-.847-2.902c-4.554-15.6 4.401-31.937 20-36.49l.022-.007z"/>
        <ellipse cx="117.523" cy="92.586" fill="url(#prefix__c)" rx="4.648" ry="4.646" transform="rotate(-35.12 117.523 92.586)"/>
        <ellipse cx="139.773" cy="105.342" fill="url(#prefix__d)" rx="4.648" ry="4.646" transform="rotate(-35.12 139.773 105.342)"/>
        <ellipse cx="105.261" cy="118.222" fill="url(#prefix__d)" rx="4.648" ry="4.646" transform="rotate(-35.12 105.261 118.222)"/>
        <ellipse cx="126.241" cy="131.871" fill="url(#prefix__e)" rx="4.648" ry="4.646" transform="rotate(-35.12 126.24 131.871)"/>
        <ellipse cx="117.523" cy="92.586" fill="#F99F8F" rx="3.098" ry="3.096" transform="rotate(-35.12 117.523 92.586)"/>
        <ellipse cx="139.773" cy="105.342" fill="#F99F8F" rx="3.098" ry="3.096" transform="rotate(-35.12 139.773 105.342)"/>
        <ellipse cx="105.261" cy="118.222" fill="#F99F8F" rx="3.098" ry="3.096" transform="rotate(-35.12 105.261 118.222)"/>
        <ellipse cx="126.241" cy="131.871" fill="#F99F8F" rx="3.098" ry="3.096" transform="rotate(-35.12 126.24 131.871)"/>
        <path fill="#1F80FF" d="M24.458 69H93v120H24.458C14.265 189 6.002 180.712 6 170.488V87.515C6 77.29 14.264 69 24.458 69z"/>
        <path fill="#000" d="M24.587 69H75.8c4.564 0 8.941 1.82 12.167 5.058 3.226 3.239 5.037 7.63 5.033 12.209v85.48C93 181.275 85.3 189 75.8 189H24.587c-4.93 0-9.657-1.964-13.143-5.461C7.958 180.042 6 175.299 6 170.355v-82.72C6.006 77.342 14.326 69 24.587 69z" opacity=".3"/>
        <path fill="#000" d="M59 69h30.16c3.225 0 5.84 2.603 5.84 5.815v108.37c0 3.212-2.615 5.815-5.84 5.815H59V69z" opacity=".1"/>
        <path fill="#1F80FF" d="M57 69h30.16c3.225 0 5.84 2.603 5.84 5.815v108.37c0 3.212-2.615 5.815-5.84 5.815H57V69z"/>
        <path fill="#1F80FF" d="M86 130H193V160H86z"/>
        <path fill="#1F80FF" d="M192 130H299V160H192z"/>
        <rect width="107" height="30" x="86" y="130" fill="#FFF" opacity=".15" rx="15"/>
        <circle cx="204" cy="70" r="6" fill="#6C63FF"/>
        <circle cx="204" cy="70" r="6" fill="#000" opacity=".3"/>
        <circle cx="109" cy="70" r="6" fill="#6C63FF"/>
        <circle cx="109" cy="70" r="6" fill="#000" opacity=".3"/>
        <ellipse cx="105.5" cy="35.5" fill="#FDA57D" rx="1.5" ry="2.5"/>
        <rect width="107" height="30" x="192" y="130" fill="#FFF" opacity=".15" rx="15"/>
        <path fill="url(#prefix__f)" d="M24.135 22.141c-.706-3.913-1.429-7.87-3.04-11.512C19.33 6.63 16.565 3.161 13.07.562c-.519-.395-1.162-.589-1.81-.545-1.014.089-1.325.715-1.484 1.362-.02.079-.037.154-.05.232-.4 1.986-.132 3.947.445 5.882.72 2.414 1.926 4.768 2.93 7.104 1.807 4.187 3.005 8.615 3.557 13.147.074.599.132 1.215.145 1.832.01.367 0 .734-.027 1.1-.045.718-.207 1.423-.48 2.088-.047.109-.098.222-.152.34-.054.118-.112.223-.175.314-.615 1.021-1.575 1.75-2.514 2.469-.94.719-2.003 1.485-3.125 1.873h.037c-.522.19-1.074.281-1.628.27-1.733-.055-3.581-1.462-5.324-1.132l-.196.045C1.436 37.43.068 40.257.054 42.05v.416c0 .048 0 .095.017.143.017.048.02.18.034.266.013.085.02.105.034.156.013.051.03.154.05.228.02.075.03.106.047.157.017.051.044.14.068.208.024.068.04.102.06.15.021.047.055.13.085.19l.075.143c.033.058.064.12.101.178l.088.136.115.163.098.126.131.15.109.116.145.14.118.105.159.13.125.098.172.12.129.088.189.113.131.074.213.106.125.061c.102.048.206.092.311.133l.152.058.243.089.176.054.2.061.195.051.19.048.209.044.182.038.22.037.176.028.226.03.169.02.236.021H7.28l.298-.024h.057c.843-.074 1.674-.258 2.47-.548 2.523-.964 4.665-2.725 6.648-4.574 3.933-3.661 7.649-8.205 7.963-13.593.122-1.944-.233-3.906-.58-5.844z" opacity=".5" transform="translate(204 49)"/>
        <path fill="#000" d="M180 70H212V79H180z" opacity=".1"/>
        <path fill="#6C63FF" d="M180 70H212V78H180z"/>
        <circle cx="198" cy="66" r="5" fill="#6C63FF"/>
        <path fill="#4D8AF0" d="M188.837 74l-.062-.076c.233-.218.37-.558.37-.92 0-.361-.137-.702-.37-.92l.055-.084c.249.24.395.608.395.998s-.146.759-.395.998l.007.004z"/>
        <path fill="#000" d="M188.837 74l-.062-.076c.233-.218.37-.558.37-.92 0-.361-.137-.702-.37-.92l.055-.084c.249.24.395.608.395.998s-.146.759-.395.998l.007.004z" opacity=".1"/>
        <path fill="#4D8AF0" d="M188.17 74c-.249-.24-.395-.609-.395-1s.146-.76.395-1l.055.084c-.233.219-.37.56-.37.922s.137.704.37.922l-.055.072z"/>
        <path fill="#FFD180" d="M214.376 101.445c2.35-.888 4.341-2.509 6.193-4.209 3.66-3.365 7.115-7.539 7.41-12.497.107-1.81-.22-3.612-.547-5.398-.657-3.598-1.328-7.237-2.817-10.582-1.643-3.676-4.216-6.864-7.466-9.253-.484-.364-1.084-.542-1.69-.5-1.032.093-1.293.798-1.431 1.474-.836 4.112 1.459 8.1 3.138 11.939 1.682 3.849 2.796 7.92 3.31 12.086.216 1.769.295 3.68-.64 5.202-.571.933-1.466 1.611-2.34 2.27-1.307.983-2.752 2.014-4.39 1.966-1.638-.048-3.468-1.45-5.16-.997-1.694.452-2.936 3.046-2.946 4.708-.02 4.503 6.23 4.976 9.376 3.79z"/>
        <g fill="#000" opacity=".1">
            <path d="M15.043 30.59c-.576.922-1.478 1.592-2.359 2.242-.882.71-1.872 1.282-2.935 1.693 1.499-.098 2.841-1.015 4.06-1.926.88-.65 1.782-1.324 2.358-2.242.94-1.5.864-3.386.646-5.14-.518-4.116-1.642-8.138-3.338-11.941-1.693-3.796-4.01-7.74-3.164-11.796.047-.485.299-.929.694-1.226-.128-.01-.257-.01-.385 0-1.041.091-1.305.789-1.443 1.456-.844 4.063 1.47 8.004 3.164 11.796 1.696 3.803 2.82 7.825 3.337 11.942.23 1.75.309 3.64-.635 5.143zM1.221 38.22c0-1.518 1.107-3.823 2.595-4.514-.253-.006-.507.022-.753.085-1.675.443-2.959 3.01-2.97 4.652-.02 4.15 5.458 4.828 8.771 3.958-3.292.467-7.664-.484-7.643-4.182z" transform="translate(205 59)"/>
        </g>
        <path fill="url(#prefix__g)" d="M18.872 6.844s9.37-1.847 14.054 0c0 0 2.81-6.464 5.62-6.464s3.746 10.17 3.746 10.17l3.746 14.772s17.799 31.393 0 48.01c-17.8 16.617-45.9-1.857-45.9-13.86 0-12.004 5.62-36.93 5.62-36.93S11.378 2.231 13.252.383c1.875-1.847 5.62 6.461 5.62 6.461z" opacity=".5" transform="translate(164 44)"/>
        <path fill="#FFD180" d="M182.76 51.493s8.877-1.782 13.316 0c0 0 2.662-6.234 5.327-6.234s3.55 9.795 3.55 9.795l3.55 14.248s16.869 30.271 0 46.308S165 113.828 165 102.253c0-11.574 5.327-35.621 5.327-35.621s5.327-19.591 7.103-21.373c1.777-1.783 5.33 6.234 5.33 6.234z"/>
        <g fill="#FFF" opacity=".1">
            <path d="M49 41.667c-1.367-5.847-3.461-11.495-6.234-16.81l.562 2.274c2.413 4.62 4.316 9.495 5.672 14.536zM.721 55.715c0-11.681 4.312-31.285 4.312-31.285s5.345-19.789 7.129-21.589c1.783-1.8 5.345 6.298 5.345 6.298s8.909-1.8 13.363 0c0 0 2.675-6.298 5.346-6.298 1.02 0 1.807 1.491 2.358 3.316-.545-2.67-1.47-5.59-2.92-5.59-2.67 0-5.345 6.297-5.345 6.297-4.455-1.8-13.363 0-13.363 0S13.383-1.23 11.6.567c-1.783 1.797-7.129 21.59-7.129 21.59S.16 41.738.16 53.44C.157 54.5.72 56.052.72 55.715z" transform="translate(166 45)"/>
        </g>
        <circle cx="200" cy="67" r="2" fill="#58555D"/>
        <circle cx="180" cy="67" r="2" fill="#58555D"/>
        <ellipse cx="190.5" cy="69" fill="#58555D" rx="2.5" ry="2"/>
        <path fill="#FFD180" d="M205.918 65.846L214.13 65.848 214.13 66.738 205.918 66.736z" transform="rotate(-12.52 210.024 66.292)"/>
        <path fill="#FFD180" d="M205.93 69.404L215.013 69.407 215.014 70.297 205.931 70.294z" transform="rotate(-11.27 210.472 69.85)"/>
        <path fill="#FFD180" d="M169.043 59.729L169.934 59.73 169.938 69.322 169.048 69.321z" transform="rotate(-68.2 169.49 64.526)"/>
        <path fill="#FFD180" d="M167.723 62.236L168.613 62.236 168.616 73.953 167.726 73.952z" transform="rotate(-81.25 168.17 68.094)"/>
        <path fill="#000" d="M188.38 81c-2.315.002-4.626-.208-6.908-.628-4.387-.808-8.608-2.429-12.472-4.79l.307-1.528c3.908 2.262 8.127 3.846 12.5 4.693 6.367 1.166 17.319.816 28.45-5.747l.743 1.444C202.92 79.217 194.413 81 188.38 81z" opacity=".1"/>
        <path fill="#F55F44" d="M210.231 73c-11.271 6.57-22.331 6.92-28.766 5.752-4.422-.848-8.687-2.433-12.638-4.697L168 75.45c4.095 2.38 8.528 4.041 13.126 4.918 2.309.422 4.647.633 6.989.632 6.1 0 14.687-1.781 22.885-6.551L210.231 73zm-21.83 7.87c-.095 0-.173-.083-.173-.184 0-.102.078-.185.174-.185.096 0 .174.083.174.185-.002.1-.08.18-.174.18v.004z"/>
        <path fill="url(#prefix__h)" d="M187 82.5c0 .828.672 1.5 1.5 1.5s1.5-.672 1.5-1.5-.672-1.5-1.5-1.5-1.5.672-1.5 1.5zm1.5-.75c-.138 0-.249-.111-.249-.249s.111-.249.249-.249.249.111.249.249c0 .136-.11.247-.246.249h-.003z" opacity=".1"/>
        <path fill="#4D8AF0" d="M187 82.5c0 .828.672 1.5 1.5 1.5s1.5-.672 1.5-1.5-.672-1.5-1.5-1.5-1.5.672-1.5 1.5zm1.5-.75c-.138 0-.25-.112-.25-.25s.112-.25.25-.25.25.112.25.25-.112.25-.25.25z"/>
        <path fill="#FFD180" d="M208 74c-23.473 12.924-37 .946-37 .946L208 74z"/>
        <path fill="url(#prefix__i)" d="M272.942 141.06c-1.45-4.113-16.98 7.47-16.98 7.47l-3.588-.213-6.907-6.399 4.822-4.822-40.49-34.724c-2.187-1.872-5.06-2.736-7.916-2.377l-33.662 4.197c-.146-1.929-1.335-4.221-3.015-6.561-3.454-5.665-10.724-12.06-13.407-14.331l-4.115-27.67 3.487-5.234c-.645-.177-1.28-.39-1.902-.639l.737-1.107-.271-.074.34-.401h-.042l8.687-10.052c1.34-1.55 1.214-3.884-.286-5.281l-19.44-14.773c.59-1.407.872-2.924.829-4.449.152-2.934-1.162-5.912-5.566-8.116-2.725-1.3-5.58-2.308-8.517-3.009-4.839-1.245-9.923-1.17-14.723.217-.078-.098-.163-.197-.252-.298-5.983-6.84-13.83 2.988-14.136 3.396l-30.67 34.116c-1.73 2.746-1.062 6.36 1.535 8.307l16.235 12.174-.051.106.917.679c-.68 1.358-1.627 2.275-2.866 2.414l2.485 1.243c-.392.275-.848.447-1.324.5l11.382 5.691c0 5.916.612 33 10.228 46.295.986 1.636 2.158 3.152 3.494 4.516 0 0 .819-.445 2.313-1.164l1.718 3.44c3.873 7.746 12.267 12.144 20.84 10.918l53.431-7.634-.567 1.698.306-.044-17.318 51.959 2.859.954-.054.102.404.173-3.603 6.792-11.339 8.72s33.14 16.57 36.627 13.955c3.487-2.615-12.225-13.954-12.225-13.954l-.873-3.488 3.814-8.052 3.195 1.067 25.679-51.362.872-1.745 17.38 21.734 4.9-4.897.53.537.044-.044 6.791 6.873 4.92 13.431s25.747-26.648 24.304-30.76zm-134.81-99.878l-.34-.394c-2.071 2.592-5.735 5.726-9.82 7.849V45.78l.193-.17v-1.243c5.267-4.849 7.333-12.263 5.331-19.137l11.28 8.664-6.645 7.287zM99.844 8.978l-.272-.272.275.272h-.003zM90.829 27.14c-.075.905-.105 1.817-.092 2.734-.02 1.331.054 2.662.221 3.983.58 4.615 2.235 8.388 5.64 10.188 2.968 1.562 4.92 1.478 6.164.411l.135.122c.105 1.805.574 3.57 1.38 5.19-6.359-1.328-12.43-3.774-17.934-7.224 0 0 .02.231.044.645l-4.665-4.666 9.107-11.383z"/>
        <path fill="#A0616A" d="M175.826 172L168 186.785 180.174 192 188 175.479z"/>
        <path fill="#333" d="M179.83 192.01l.844 3.35s15.218 10.866 11.835 13.372C189.127 211.238 157 195.36 157 195.36l10.991-8.36 11.84 5.01z"/>
        <path fill="#000" d="M187 177.057L174.668 173 171 179.839 183.188 185z" opacity=".1"/>
        <path fill="#A0616A" d="M230 145.348L241.534 157 250 147.16 236.838 135z"/>
        <path fill="#000" d="M237.713 135L231 145.517 235.292 150 244 141.009z" opacity=".1"/>
        <path fill="#333" d="M250.569 146.967l3.557.21s15.378-11.339 16.815-7.312C272.38 143.892 246.873 170 246.873 170L242 156.843l8.569-9.876z"/>
        <path fill="#A0616A" d="M142.552 61L160.1 40.448c1.3-1.52 1.176-3.807-.278-5.175L121.636 6 117 13.316l29.595 23.042-12.564 13.935L142.551 61z"/>
        <path fill="#000" d="M140.02 43L134 49.603 142.366 60 151 50.015c-4.212-1.333-7.999-3.753-10.98-7.015z" opacity=".1"/>
        <path fill="#A0616A" d="M90.433 65L70.43 50.107c-2.531-1.885-3.182-5.383-1.496-8.042L98.864 9 105 15.092 84.296 40.698l12.24 12.15L90.432 65z"/>
        <path fill="#000" d="M87 62.536L90.13 65 96 52.712 88.63 45c.157 2.615.597 12.778-1.63 17.536z" opacity=".1"/>
        <path fill="#4D8AF0" d="M187.377 124.09L169 178.91 187.377 185 218 124.09 193.502 118z"/>
        <path fill="#000" d="M185.931 126.302L185 129.139 204.574 126.302 212.22 136 217 126.302 192.144 120z" opacity=".1"/>
        <path fill="#A0616A" d="M99 8.657s7.752-10.104 13.64-3.305c5.888 6.8-9.248 7.648-9.248 7.648L99 8.657z"/>
        <path fill="#4D8AF0" d="M107 112.84l5.925 11.918c3.783 7.608 11.983 11.927 20.357 10.723l71.805-10.3L229.61 156 248 137.51l-39.563-34.094c-2.135-1.84-4.942-2.689-7.732-2.339L107 112.841z"/>
        <path fill="#000" d="M90.495 46.687S92.103 66.473 86 67.152l12.206 6.109s-.68 35.876 12.206 48.739c0 0 23.736-12.863 48.828-12.184 25.092.679-6.12-24.371-6.12-24.371L149 57.71l3.4-5.09c-4.598-1.375-8.713-4.016-11.874-7.62-3.4 4.232-11.172 9.971-17.915 9.971h-2.917c-10.05 0-20.74-2.036-29.21-7.432l.01-.852z" opacity=".1"/>
        <path fill="#3AD29F" d="M89.498 44.69S91.12 64.476 85 65.152l12.206 6.109s-.68 35.876 12.206 48.739c0 0 23.736-12.863 48.828-12.184 25.092.679-6.12-24.371-6.12-24.371L148 55.71l3.4-5.09c-4.598-1.375-8.713-4.016-11.874-7.62-3.4 4.232-11.172 9.971-17.915 9.971h-2.917c-10.05 0-20.74-2.874-29.21-8.28h.014z"/>
        <path fill="#A0616A" d="M105 39v6.91c0 3.51 1.405 6.876 3.906 9.357L123.751 70l4.94-9.81c.86-1.707 1.309-3.59 1.309-5.5V39h-25z"/>
        <path fill="#000" d="M105 46.697c0 .247 0 .491.024.738 7.118 6.094 17.869 6.086 24.976-.02V40h-25v6.697z" opacity=".1"/>
        <circle cx="118" cy="31" r="20" fill="#9F616A"/>
        <path fill="#2F2E41" d="M106.45 30.66c.75-.198.86-1.18.885-1.946.135-4.098 2.64-8.303 6.62-9.496 1.528-.413 3.127-.5 4.691-.255 2.233.293 4.389 1.002 6.353 2.089 1.037.574 2.054 1.266 3.23 1.442.776.116 4.14 1.08 4.913 1.215 1.7.298 3.28 1.797 4.912 1.24 1.56-.535 1.906-2.526 1.944-4.154.086-3.709-2.77-8.842-5.287-11.601-1.91-2.094-4.785-3.06-7.595-3.563-3.283-.52-6.61-.72-9.934-.595-4.498.079-9.12.42-13.176 2.339-4.056 1.918-7.463 5.735-7.657 10.165-.04.922.056 1.849-.023 2.77-.192 2.244-1.402 4.272-1.969 6.455-.82 3.238-.212 6.667 1.674 9.44 1.505 2.182 3.87 4.157 3.784 6.795l3.264-3.333c1.004-.755 1.337-2.1.797-3.227L102.72 32c-.297-.794-.332-1.659-.1-2.472 1.238-3.016 2.577 1.46 3.828 1.132z"/>
        <ellipse cx="106.5" cy="33" fill="#A0616A" rx="1.5" ry="3"/>
        <path fill="#000" d="M97 71L97.752 68 100 69.999zM152 84s-9.406 4.588-12 9M148 56L147.001 59 145 56zM186.824 95.542s5.971 13.242-1.87 14.383c-7.84 1.14-4.262-11.092-4.262-11.092S179.908 95.204 178 95M194.028 96s-7.208 12.938.619 14.812c7.827 1.875 5.29-10.902 5.29-10.902s1.112-3.623 3.063-3.657" opacity=".1"/>
        <path fill="#FFD180" d="M185.823 95.552s5.974 13.233-1.87 14.373c-7.845 1.14-4.266-11.084-4.266-11.084S178.903 95.204 177 95M195.032 95s-7.218 12.952.619 14.814c7.837 1.863 5.288-10.911 5.288-10.911s1.111-3.626 3.061-3.66"/>
        <path fill="#58555D" d="M180.93 107H181.93V110H180.93zM183.93 107H184.93V110H183.93zM182.93 106H183.93V110H182.93zM195.93 107H196.93V110H195.93zM197.93 107H198.93V110H197.93zM196.93 106H197.93V110H196.93z" opacity=".5"/>
    </g>
</svg>
