<svg xmlns="http://www.w3.org/2000/svg" width="271" height="204" viewBox="0 0 271 204">
    <g fill="none">
        <path fill="#FFCB05" d="M271 11.017v183.11c0 5.45-5.235 9.873-11.7 9.873H11.697C5.235 204 0 199.57 0 194.128V11.017C0 5.567 5.235 0 11.698 0l247.59.605C265.75.602 271 5.561 271 11.017z" opacity=".1"/>
        <path fill="#00274C" d="M271 10.76V19H0v-8.24C0 4.819 4.94 0 11.034 0h248.92c2.928-.002 5.737 1.13 7.81 3.148 2.07 2.019 3.236 4.757 3.236 7.613z"/>
        <circle cx="13" cy="9" r="4" fill="#FA5959" opacity=".8"/>
        <circle cx="25" cy="9" r="4" fill="#FED253" opacity=".8"/>
        <circle cx="37" cy="9" r="4" fill="#8CCF4D" opacity=".8"/>
        <path fill="#000" d="M248.255 154.334l-.018.066c-.03.086-.065.17-.106.252.032-.11.074-.216.124-.318z" opacity=".1"/>
        <path fill="#1F80FF" d="M56.108 79.464H30.892c-.312-.02-.609.136-.77.402-.162.266-.162.6 0 .865.161.266.458.421.77.402h25.216c.312.019.609-.136.77-.402.162-.266.162-.6 0-.865-.161-.266-.458-.421-.77-.402zm0 2.863H30.892c-.465 0-.841.375-.841.837 0 .462.376.836.84.836h25.217c.465 0 .841-.374.841-.836 0-.462-.376-.837-.84-.837zM54.843 63H32.16c-1.163.002-2.106.938-2.11 2.094V75.7c.004 1.156.947 2.092 2.11 2.094h22.683c1.162-.003 2.103-.939 2.106-2.094V65.094c-.003-1.155-.944-2.09-2.106-2.094zm-19.87 12.894h-2.16c-.465 0-.842-.375-.842-.836 0-.462.377-.837.841-.837h2.161c.465 0 .841.375.841.837 0 .461-.376.836-.84.836zm0-9.312h-2.16c-.465 0-.842-.375-.842-.837 0-.461.377-.836.841-.836h2.161c.465 0 .841.375.841.836 0 .462-.376.837-.84.837zm8.535 8.594c-2.653 0-4.804-2.138-4.804-4.776s2.15-4.776 4.804-4.776c2.653 0 4.803 2.138 4.803 4.776-.003 2.639-2.155 4.776-4.81 4.776h.007zm10.689.718h-2.161c-.465 0-.841-.375-.841-.836 0-.462.376-.837.841-.837h2.161c.465 0 .841.375.841.837 0 .461-.376.836-.841.836zm0-9.312h-2.161c-.465 0-.841-.375-.841-.837 0-.461.376-.836.841-.836h2.161c.465 0 .841.375.841.836 0 .462-.376.837-.841.837z"/>
        <path fill="#1F80FF" d="M91 41H205V104H91zM91 119H205V182H91z" opacity=".2"/>
        <path fill="#FFCB05" d="M113 86H117V97H113zM120 71H124V97H120z"/>
        <path fill="#DFE3EF" d="M126 58H130V97H126z"/>
        <path fill="#FFCB05" d="M133 49H137V97H133z"/>
        <path fill="#1E80FF" d="M126 49H130V97H126zM140 71H144V97H140z"/>
        <path fill="#1F80FF" d="M146 64H150V97H146z" opacity=".2"/>
        <path fill="#1E80FF" d="M152 54H156V97H152z"/>
        <path fill="#1F80FF" d="M159 78H163V97H159z" opacity=".2"/>
        <path fill="#1E80FF" d="M166 69H170V97H166z"/>
        <path fill="#1F80FF" d="M173 58H177V97H173z" opacity=".2"/>
        <path fill="#1E80FF" d="M178 58H182V97H178z"/>
        <path fill="#1F80FF" d="M57 142.899c-.003-1.048-.864-1.896-1.927-1.899H31.94c-1.064.003-1.926.851-1.93 1.899v2.851H57v-2.851zm-27 15.2c.003 1.048.866 1.898 1.93 1.901h23.143c1.064-.003 1.925-.853 1.927-1.902v-9.488H30.01l-.01 9.488zm8.567-2.849h9.885c.313-.019.61.135.773.4.163.265.163.596 0 .86-.162.265-.46.42-.773.4h-9.885c-.446-.026-.794-.39-.794-.83 0-.44.348-.804.794-.83zm-4.339 0h.722c.314-.019.611.135.774.4.162.265.162.596 0 .86-.163.265-.46.42-.774.4h-.722c-.313.02-.61-.135-.773-.4-.163-.264-.163-.595 0-.86.162-.265.46-.419.773-.4z"/>
        <path fill="#FFCB05" d="M113 163H117V174H113zM120 148H124V174H120z"/>
        <path fill="#DFE3EF" d="M126 135H130V174H126z"/>
        <path fill="#FFCB05" d="M133 126H137V174H133z"/>
        <path fill="#1F80FF" d="M126 126H130V174H126zM140 148H144V174H140z"/>
        <path fill="#FFCB05" d="M146 141H150V174H146zM152 131H156V174H152z"/>
        <path fill="#1F80FF" d="M159 155H163V174H159zM166 146H170V174H166zM173 135H177V174H173zM178 135H182V174H178z" opacity=".2"/>
    </g>
</svg>
