<svg xmlns="http://www.w3.org/2000/svg" width="288" height="238" viewBox="0 0 288 238">
    <g fill="none" fill-rule="evenodd">
        <path fill="#FFCB05" fill-rule="nonzero" d="M239 109.582l-49.053-61.283c-2.227 2.037-4.971 3.422-7.933 4.005-9.234 1.818-18.253-4.487-20.143-14.082-1.328-6.467 1.037-13.138 6.142-17.326L151.287 0 56 81.418 143.713 191 239 109.582z" opacity=".1"/>
        <circle cx="178" cy="36" r="14" fill="#FFCB05" fill-rule="nonzero" opacity=".1"/>
        <path fill="#00274C" fill-rule="nonzero" d="M93.394 96.526L99.877 96.527 99.881 115.4 93.398 115.398z" transform="rotate(-49.17 96.638 105.963)"/>
        <path fill="#00274C" fill-rule="nonzero" d="M184.397 184.602L190.879 184.603 190.883 201.332 184.4 201.331z" transform="rotate(-49.17 187.64 192.967)"/>
        <path fill="#3F3D56" fill-rule="nonzero" d="M206 148.498v.38c-.009.955-.036 1.905-.082 2.851-1.71 33.61-29.348 60.05-63.003 60.27-33.655.22-61.636-25.855-63.785-59.44-.087-1.344-.13-2.697-.13-4.06-.023-13.152 4.06-25.983 11.676-36.704.61-.863 1.243-1.712 1.901-2.544.454-.579.92-1.144 1.39-1.706 22.298-26.414 61.627-30.146 88.495-8.397.764.618 1.516 1.257 2.25 1.91.588.522 1.165 1.056 1.733 1.602 11.173 10.687 18.05 25.092 19.335 40.5.147 1.762.22 3.541.22 5.338z"/>
        <path fill="#00274C" fill-rule="nonzero" d="M142.6 220c-39.48 0-71.6-32.042-71.6-71.427-.023-18.02 6.804-35.377 19.104-48.573l1.586 1.468c-11.929 12.797-18.55 29.63-18.527 47.105 0 38.195 31.15 69.269 69.436 69.269 18.799.063 36.807-7.54 49.848-21.047l1.553 1.502c-13.447 13.928-32.016 21.768-51.4 21.703z"/>
        <path fill="#00274C" fill-rule="nonzero" d="M135 219H153V237H135z"/>
        <path fill="#1F80FF" fill-rule="nonzero" d="M92.475 109.705c.03.013.06.03.086.052.338.28-.086.82-.035 1.264.06.57.815.695 1.385.751.57.06 1.29.523 1.02 1.032-1.431.496-2.88.009-4.342-.557-7.56 10.713-11.612 23.534-11.589 36.675 0 1.364.043 2.716.129 4.057.12.088.25.16.39.212.429.164.926.134 1.32.367.313.185.523.513.836.686.896.492 2.14-.453 2.976.134.216.198.42.408.613.63.771.673 2.04.22 2.932.725.575.324.87.971 1.18 1.558.767 1.468 2.01 2.91 3.652 3.026.518-.024 1.037-.007 1.552.052.506.116 1.003.56.922 1.074-.142.885.291 1.852.175 2.737-.21 1.618-2.486 2.326-2.679 3.945 0 .356-.02.712-.06 1.066-.103.423-.42.768-.532 1.191-.214.799.356 1.597.978 2.133.626.54 1.372 1.005 1.715 1.756.36.799.184 1.727.3 2.594.257 1.895 1.882 3.298 3.554 4.204.536.226 1.012.575 1.389 1.019.429.626.386 1.45.532 2.197.351 1.826 1.877 3.332 1.92 5.192.03 1.325-.698 2.525-1.136 3.773-.45 1.307-.583 2.704-.39 4.074 2.445 2.087 5.043 3.985 7.773 5.676.148-.22.257-.466.321-.725.107-.586-.158-1.177-.664-1.485.46-.175.88-.446 1.23-.794.353-.365.442-.913.223-1.373.755.095 1.65.143 2.148-.44.399-.466.373-1.165.214-1.757-.217-.575-.361-1.175-.428-1.787 1.748.086 3.5.027 5.239-.176-.252-.854-.824-1.576-1.595-2.012.789-.134 1.505-1.083 1.753-1.847.215-.78.227-1.602.035-2.387-.06-.202-.069-.415-.026-.622.127-.273.35-.49.626-.608 1.303-.756 2.607-1.51 3.91-2.262.232-.118.444-.274.626-.462.407-.487.347-1.217.137-1.817-.21-.6-.544-1.165-.626-1.795-.24-1.887 1.766-3.242 2.444-5.02.23-.71.354-1.45.369-2.197.055-.803.06-1.73-.55-2.245-.587-.496-1.5-.384-2.113-.846-.561-.423-.754-1.238-1.367-1.58-.558-.31-1.252-.111-1.874-.258-1.089-.255-1.775-1.52-2.89-1.636-.626-.07-1.337.242-1.852-.125-.454-.328-.471-.98-.557-1.533-.312-1.762-1.68-3.143-3.43-3.461-.647-.104-1.35-.065-1.903-.423-.558-.363-.81-1.04-1.252-1.545-.703-.807-1.818-1.097-2.86-1.343-1.415-.332-2.828-.666-4.24-1.001-.75-.181-1.72-.276-2.126.388-.12.253-.205.522-.25.799-.313 1.022-1.243 1.725-2.306 1.744-.354-.61-.928-1.058-1.603-1.252-.44-.075-.876-.178-1.303-.31-.451-.223-.791-.623-.94-1.105-.15-.483-.095-1.006.15-1.447.5-.9.34-2.026-.39-2.75-.72-.65-1.761-.81-2.73-.746-.253-.557.171-1.182.626-1.588.458-.402 1.011-.799 1.11-1.403.159-.95-1.046-1.67-1.96-1.39-.912.285-1.496 1.179-1.881 2.06-.187.519-.443 1.01-.76 1.462-.33.456-.886.686-1.44.596-.754-.194-1.042-1.096-1.209-1.856-.268-1.015-.403-2.062-.403-3.112.007-1.061.425-2.077 1.166-2.832 1.248-1.156 3.169-1.044 4.854-.858-.374-.502-.319-1.204.128-1.64.458-.41 1.087-.565 1.68-.415.509.106.966.381 1.3.781.48.587.617 1.386.977 2.05.365.67 1.18 1.24 1.844.881.579-.31.669-1.114.527-1.757-.146-.639-.45-1.264-.399-1.92.1-1.248 1.39-2.003 2.526-2.517 1.136-.513 2.435-1.208 2.615-2.451.008-.242.055-.481.137-.708.126-.203.302-.37.51-.484 3.314-2.205 6.688-4.441 10.478-5.645.197-.065.219.004.42-.043.283-.164.095-.618-.175-.799-.27-.181-.63-.324-.7-.643-.046-.233.09-.466.125-.704.018-.29-.108-.572-.338-.75-.23-.178-.531-.23-.807-.139-.304-.405.296-.876.785-1.014 1.463-.404 2.965-.65 4.48-.734.175-.029.355.001.51.086.232.225.249.593.039.838-.206.23-.435.44-.682.626-.501.49-.69 1.22-.488 1.895.793.405 1.65.824 2.529.681.875-.142 1.65-1.135 1.24-1.925-.383-.738-1.536-.906-1.733-1.713-.232-.945 1.098-1.787.797-2.71-.128-.406-.531-.648-.84-.937-.743-.737-.963-1.857-.553-2.823-1.018.179-2.06-.15-2.795-.88-.669-.678-1.2-1.753-2.152-1.718-.87.025-1.621 1.048-2.436.738-.201-.078-.411-.233-.604-.143-.129.084-.213.222-.227.376-.206.997.15 2.132-.39 2.995-.588.937-1.947 1.066-2.659 1.912-.385.458-.535 1.075-.891 1.558-.356.484-1.106.795-1.535.372.432-.893.194-1.968-.575-2.59-.394-.261-.821-.47-1.269-.622-.5-.212-.975-.478-1.419-.794-.22-.135-.4-.33-.518-.561-.094-.291-.082-.606.034-.89.442-1.27 1.546-2.19 2.868-2.39.566-.078 1.226-.052 1.603-.488.198-.229.3-.578.592-.67.184-.038.375-.015.545.066l2.117.75c.236.11.497.153.755.126.265-.035.459-.27.442-.54-.069-.354-.61-.522-.558-.88.025-.117.087-.223.176-.302 1.548-1.658 3.75-2.533 6.006-2.387.266.444-.154.967-.51 1.342-.351.38-.634 1.053-.206 1.343.173.09.367.135.562.129.521.07 1.028.225 1.5.458.734.319 1.454.673 2.157 1.053-.103-.463-.086-.945.052-1.399.16-.461.642-.725 1.114-.608.42.164.635.725 1.085.777.596.069.832-.82.583-1.373-.249-.552-.746-1.01-.785-1.619-.03-.405.125-.91-.197-1.156-.114-.077-.245-.124-.381-.138l-8.082-1.494c-.48-.09-1.17-.021-1.192.466-.012.277.232.548.125.799-.116.267-.493.246-.768.34-.423.194-.668.647-.6 1.11.073.449.246.875.506 1.247-.527-.22-1.32-.259-1.848-.483-.077-.615-.232-1.217-.463-1.791-.027-.185-.133-.349-.291-.447-.158-.098-.351-.121-.528-.063-.694.108-1.389.212-2.083.32-.175.008-.342.073-.476.185-.27.29-.005.752-.013 1.149-.052.455-.384.827-.828.928-.436.089-.886.083-1.32-.018-.973-.15-1.942-.302-2.915-.453.859-.275 1.623-.79 2.203-1.485.386-.457.592-1.312.035-1.528-.165-.045-.337-.058-.506-.038-1.32.008-2.363-1.101-3.597-1.572-.389-.145-.8-.221-1.214-.224l-1.38 1.705zM206.917 152.323c-.31.417-.809.654-1.33.63-1.36-.117-1.933-2.078-3.28-2.3-.119-.03-.245-.018-.356.035-.2.109-.235.378-.248.604-.056 1.122-.104 2.287.335 3.322.639 1.512 2.294 2.782 1.947 4.386-1.869-.865-2.842-2.965-3.281-4.978-.443-2.012-.513-4.125-1.304-6.03-.603.77-1.864.135-2.411-.673-.521-.765-.843-1.652-1.347-2.43-.504-.774-1.277-1.47-2.199-1.513-.969-.044-1.812.622-2.55 1.252-.643.475-1.182 1.075-1.586 1.765-.517 1.043-.383 2.27-.409 3.43-.026 1.252-.29 2.578-1.147 3.5-.856.917-2.433 1.238-3.376.408-.456-.475-.78-1.061-.943-1.7-1.025-2.989-1.878-6.034-2.555-9.12-.156.704-.777 1.613-1.368 1.2-.132-.113-.24-.252-.313-.41-1.104-1.864-3.142-2.986-5.206-3.66-2.06-.669-4.227-.982-6.265-1.721-1.143-.415-2.235-.96-3.255-1.622-.527.778-.587 1.782-.156 2.618.47.824 1.437 1.23 2.355.986.452-.147.834-.46 1.282-.617.447-.152 1.051-.078 1.247.357.191.413-.096.912.048 1.347.213.657 1.208.709 1.555 1.309.21.487.078 1.055-.326 1.4-.4.326-.84.598-1.312.808-1.46.813-2.498 2.2-3.776 3.278-1.277 1.082-3.08 1.87-4.601 1.178.36-1.839-1.825-3.186-2.23-5.017-.134-.604-.064-1.243-.251-1.83-.274-.852-1.03-1.434-1.647-2.078-1.514-1.596-2.321-3.735-2.238-5.934.035-.756.174-1.526 0-2.265-.17-.735-.782-1.447-1.538-1.417-1.725.078-3.902.209-4.806-1.265-.325-.526-.464-1.296.005-1.7.37-.235.82-.312 1.247-.213 1.299.126 2.594.257 3.893.383.908.087 1.89.16 2.672-.313.782-.474 1.121-1.74.396-2.3-.526-.409-1.473-.387-1.63-1.035-.126-.543.474-1.156.148-1.613-.23-.321-.752-.234-1.069.01-.277.287-.578.55-.9.786-.62.322-1.36.013-2.029-.196-.669-.208-1.564-.226-1.885.396-.365.691.317 1.604-.04 2.3-.477.917-2.085.395-2.754 1.187-.765.904.521 2.26.265 3.416-.672.334-1.469.29-2.099-.117-.62-.421-.957-1.15-.877-1.895.06-.522.334-1.057.152-1.548-.197-.38-.522-.677-.917-.839-1.26-.7-2.52-1.397-3.78-2.091-.352.652.09 1.456.647 1.948.552.486 1.247.856 1.612 1.5.48.925.156 2.064-.739 2.599-.11.076-.248.1-.378.065-.121-.071-.21-.189-.243-.326-.665-1.708-1.669-3.39-3.268-4.282-1.603-.895-3.901-.708-4.953.791-.248.357-.417.765-.634 1.144-1.152 2.004-3.628 2.951-5.94 2.89-.226.015-.451-.038-.647-.152-.374-.256-.357-.804-.3-1.256.082-.639.16-1.274.243-1.913.002-.39.153-.765.422-1.047.43-.34 1.047-.126 1.594-.135.847-.038 1.579-.603 1.83-1.413.224-.813-.02-1.683-.635-2.26-.248-.235-.582-.531-.452-.848.107-.177.287-.298.491-.33.978-.283 2.016-.357 2.977-.696.964-.335 1.898-1.022 2.129-2.017.07-.305.1-.674.373-.826.139-.056.286-.085.435-.087 1.083-.156 1.868-1.111 1.812-2.204.46-.322 1.108-.083 1.555.26.444.344.839.796 1.382.944 1.012.278 1.99-.622 3.042-.626.443 0 .899.156 1.312.004.421-.152.673-.57.995-.878.326-.313.89-.5 1.19-.165-.087-.63-.17-1.257-.256-1.883 1.036.261 2.134.062 3.011-.547-1.095-.37-2.185-.74-3.28-1.109-.115-.028-.221-.085-.309-.165-.239-.257 0-.657.191-.948.465-.7.543-1.852-.221-2.2-.522-.239-1.117.048-1.617.327-.8.443-1.599.89-2.398 1.334-.074.457.482.717.825 1.022.429.38.579.984.379 1.52-.2.537-.71.895-1.282.901.319.417.432.955.308 1.465l-1.612.118c-.18.036-.368-.002-.521-.105-.174-.152-.148-.421-.191-.648-.147-.552-.615-.96-1.182-1.03-.554-.062-1.114-.01-1.647.152-.232.082-.485.076-.713-.017-.129-.085-.226-.21-.278-.357-.192-.606-.054-1.269.365-1.747.417-.464.877-.887 1.373-1.265 1.125-.985 1.95-2.265 2.386-3.695.886-.374 1.803-.879 2.694-1.252.716-.332 1.466-.585 2.237-.752.726-.111 1.462-.146 2.195-.105.999.018 2.003.035 3.002.057.892-.038 1.783.09 2.629.378.821.339 1.547 1.074 1.603 1.96.035.206-.039.415-.195.553-.116.063-.247.094-.378.087-.83.026-1.182.234-2.012.265.526.56 1.117 1.152 1.881 1.252 1.347.174 2.316-1.222 2.938-2.435.046.642.595 1.13 1.238 1.1.333-.057.65-.181.934-.365 2.673-1.461 5.666-2.235 8.712-2.252-.062-.478.248-.925.717-1.035.621-.121 1.177.413 1.477.97.296.556.483 1.2.96 1.617.474.417 1.39.396 1.578-.204.182-.578-.422-1.074-.921-1.417-.504-.34-1.03-.97-.691-1.474 2.555-.57 5.131-1.135 7.751-1.248.446.014.89-.063 1.304-.226.422-.179.672-.62.608-1.074-1.17.273-2.387-.187-3.085-1.165 2.69-.221 5.505-.417 8.09.187l2.264 1.922c-.43.447-1.003.87-.69 1.317.209.208.502.31.795.274.547.009 1.095.022 1.638.022 11.239 10.755 18.156 25.253 19.448 40.76-.912-.035-1.75 1.121-1.633 2.13.139 1.17.982 2.108 1.586 3.117.1.164.19.334.269.508l-.083 2.87z"/>
        <path stroke="#00274C" stroke-width="2" d="M0 237L288 237"/>
        <circle cx="87.5" cy="24.5" r="5.5" stroke="#00274C" stroke-width="2"/>
        <circle cx="249.5" cy="128.5" r="5.5" stroke="#00274C" stroke-width="2"/>
        <circle cx="211.5" cy="74.5" r="5.5" stroke="#00274C" stroke-width="2"/>
        <circle cx="95" cy="130" r="6" fill="#3F3D56" fill-rule="nonzero"/>
        <circle cx="196" cy="101" r="8" fill="#FFF" fill-rule="nonzero"/>
        <path fill="#FFCB05" fill-rule="nonzero" d="M62.945 109.212c-3.595 5.175-2.263 12.213 2.976 15.719 5.238 3.506 28.948 5.65 28.948 5.65s-10.693-20.884-15.931-24.39c-5.238-3.506-12.399-2.153-15.993 3.021zm14.111 9.446c-1.22 1.756-3.39 2.623-5.5 2.195-2.11-.427-3.742-2.064-4.136-4.147-.395-2.083.527-4.203 2.334-5.37 1.808-1.167 4.145-1.152 5.923.038 2.427 1.625 3.045 4.886 1.38 7.284z"/>
    </g>
</svg>
